<svg width="80" height="79" viewBox="0 0 80 79" fill="none" xmlns="http://www.w3.org/2000/svg">
<rect x="0.483997" y="0.483997" width="71.032" height="69.032" rx="11.516" stroke="#4555FF" stroke-width="0.967994" stroke-dasharray="3.87 3.87"/>
<rect x="8" y="8" width="72" height="71" rx="12" fill="#D015FF"/>
<path d="M55.875 44H53.2362M53.2362 44C53.2362 46.4498 52.2637 48.7986 50.5315 50.5308C48.7992 52.2631 46.4498 53.2362 44 53.2362M53.2362 44C53.2362 41.5502 52.2637 39.2002 50.5315 37.4679C48.7992 35.7357 46.4498 34.7638 44 34.7638M44 32.125V34.7638M44 34.7638C41.5504 34.7638 39.2011 35.7356 37.469 37.4677C35.7369 39.1999 34.7638 41.5491 34.7638 43.9987C34.7638 46.4484 35.7369 48.7976 37.469 50.5298C39.2011 52.2619 41.5504 53.2362 44 53.2362M32.125 44H34.7638M44 55.875V53.2362" stroke="white" stroke-width="1.25" stroke-miterlimit="10" stroke-linecap="round"/>
<path d="M44.0002 49.2777C45.3998 49.2777 46.7422 48.7216 47.7319 47.7319C48.7216 46.7422 49.2777 45.3998 49.2777 44.0002C49.2777 42.6005 48.7216 41.2581 47.7319 40.2684C46.7422 39.2787 45.3998 38.7227 44.0002 38.7227C42.6005 38.7227 41.2581 39.2787 40.2684 40.2684C39.2787 41.2581 38.7227 42.6005 38.7227 44.0002C38.7227 45.3998 39.2787 46.7422 40.2684 47.7319C41.2581 48.7216 42.6005 49.2777 44.0002 49.2777Z" stroke="white" stroke-width="1.25" stroke-miterlimit="10" stroke-linecap="round"/>
</svg>
