<svg width="80" height="79" viewBox="0 0 80 79" fill="none" xmlns="http://www.w3.org/2000/svg">
<rect x="0.483997" y="0.483997" width="71.032" height="69.032" rx="11.516" stroke="#4555FF" stroke-width="0.967994" stroke-dasharray="3.87 3.87"/>
<rect x="8" y="8" width="72" height="71" rx="12" fill="#D015FF"/>
<path d="M40.4895 43.3099L47.4405 41.9629C47.5816 41.9319 47.7052 41.8473 47.7852 41.727C47.8652 41.6067 47.8954 41.4601 47.8695 41.3179C47.8367 41.1804 47.7508 41.0614 47.6304 40.9872C47.51 40.9129 47.3652 40.8895 47.2275 40.9219L40.2765 42.2689C40.1385 42.2972 40.0173 42.3791 39.9397 42.4967C39.862 42.6143 39.8343 42.7579 39.8625 42.8959C39.8908 43.034 39.9727 43.1551 40.0903 43.2328C40.2079 43.3104 40.3515 43.3382 40.4895 43.3099ZM48.0525 44.2279L43.8885 45.0559C43.2165 45.1789 43.4295 46.2559 44.1045 46.0969L48.2685 45.2719C48.3406 45.2614 48.4097 45.2363 48.4717 45.1982C48.5337 45.16 48.5872 45.1095 48.629 45.0499C48.6707 44.9903 48.6999 44.9227 48.7146 44.8514C48.7293 44.7801 48.7293 44.7066 48.7145 44.6353C48.6998 44.564 48.6706 44.4965 48.6288 44.4369C48.587 44.3773 48.5335 44.3269 48.4715 44.2887C48.4095 44.2505 48.3403 44.2255 48.2683 44.215C48.1962 44.2046 48.1228 44.209 48.0525 44.2279ZM42.7245 38.3479C42.5865 38.3766 42.4655 38.4589 42.3881 38.5767C42.3107 38.6946 42.2834 38.8384 42.312 38.9764C42.3407 39.1145 42.423 39.2355 42.5408 39.3128C42.6587 39.3902 42.8025 39.4176 42.9405 39.3889L46.9215 38.6239C47.0621 38.5922 47.1849 38.5074 47.2643 38.3871C47.3437 38.2669 47.3735 38.1206 47.3475 37.9789C47.3113 37.8403 47.2251 37.7201 47.1054 37.6414C46.9857 37.5627 46.8411 37.5312 46.6995 37.5529L42.7245 38.3479ZM39.8775 48.3019L38.9775 49.6519L38.4555 49.3129C38.3367 49.2396 38.1943 49.2146 38.0575 49.2431C37.9208 49.2715 37.8002 49.3513 37.7205 49.4659C37.6449 49.5841 37.6186 49.7272 37.6472 49.8646C37.6758 50.002 37.757 50.1227 37.8735 50.2009L38.8245 50.8459C38.882 50.8866 38.9473 50.915 39.0162 50.9293C39.0852 50.9437 39.1564 50.9437 39.2253 50.9293C39.2943 50.915 39.3595 50.8866 39.417 50.8459C39.4745 50.8052 39.523 50.7532 39.5595 50.6929L40.7595 48.8929C41.1585 48.3109 40.2705 47.7289 39.8595 48.3109L39.8775 48.3019ZM39.8475 51.7639L37.0995 52.2859L36.4575 48.9859L39.1995 48.4549C39.2679 48.4409 39.3328 48.4136 39.3906 48.3745C39.4484 48.3355 39.4979 48.2854 39.5364 48.2272C39.5748 48.1689 39.6014 48.1037 39.6147 48.0352C39.6279 47.9667 39.6275 47.8963 39.6135 47.8279C39.5995 47.7596 39.5722 47.6946 39.5331 47.6368C39.4941 47.579 39.444 47.5295 39.3858 47.4911C39.3275 47.4526 39.2623 47.426 39.1938 47.4128C39.1253 47.3996 39.0549 47.3999 38.9865 47.4139L35.7135 48.0589C35.5803 48.0878 35.4625 48.1652 35.3832 48.2761C35.3039 48.3871 35.2688 48.5235 35.2845 48.6589L36.1425 53.0089C36.1743 53.1528 36.2603 53.2789 36.3827 53.361C36.505 53.4432 36.6543 53.475 36.7995 53.4499L40.0755 52.8049C40.1439 52.7909 40.2088 52.7636 40.2666 52.7245C40.3244 52.6855 40.3739 52.6354 40.4124 52.5772C40.4508 52.5189 40.4774 52.4537 40.4907 52.3852C40.5039 52.3167 40.5035 52.2463 40.4895 52.1779C40.4755 52.1096 40.4482 52.0446 40.4091 51.9868C40.3701 51.929 40.32 51.8795 40.2618 51.8411C40.2035 51.8026 40.1383 51.776 40.0698 51.7628C40.0013 51.7495 39.9309 51.7499 39.8625 51.7639H39.8475ZM41.6835 49.1299C41.5455 49.1586 41.4245 49.2409 41.3471 49.3587C41.2697 49.4766 41.2424 49.6204 41.271 49.7584C41.2997 49.8965 41.382 50.0175 41.4998 50.0948C41.6177 50.1722 41.7615 50.1996 41.8995 50.1709L48.8505 48.8239C48.9189 48.8097 48.9838 48.7822 49.0415 48.743C49.0992 48.7037 49.1486 48.6535 49.1869 48.5951C49.2252 48.5367 49.2517 48.4714 49.2647 48.4028C49.2778 48.3343 49.2772 48.2638 49.263 48.1954C49.2488 48.1271 49.2213 48.0622 49.1821 48.0045C49.1428 47.9467 49.0926 47.8973 49.0342 47.859C48.9758 47.8207 48.9105 47.7943 48.8419 47.7812C48.7733 47.7682 48.7029 47.7687 48.6345 47.7829L41.6835 49.1299ZM55.7835 34.4299L48.6195 33.0199L48.4665 32.2249C48.3432 31.6637 48.0051 31.173 47.5246 30.8579C47.0441 30.5428 46.4594 30.4283 45.8955 30.5389L35.2065 32.6389C35.1381 32.6469 35.0724 32.6703 35.0142 32.7071C34.9561 32.744 34.907 32.7935 34.8705 32.8519L30.6615 38.8999C30.597 38.9623 30.5486 39.0393 30.5203 39.1245C30.4921 39.2097 30.485 39.3004 30.4995 39.3889L33.6915 55.5619C33.7424 55.8431 33.8491 56.1112 34.0052 56.3505C34.1613 56.5898 34.3637 56.7954 34.6004 56.9553C34.8372 57.1152 35.1036 57.2261 35.3839 57.2815C35.6642 57.337 35.9527 57.3357 36.2325 57.2779L50.5635 54.4999C51.1266 54.3867 51.6224 54.0562 51.9436 53.5801C52.2648 53.1039 52.3855 52.5204 52.2795 51.9559L49.6995 38.7769L53.0685 39.4519C53.7735 39.5719 53.9865 38.5309 53.2845 38.4079L49.4925 37.6429L48.8175 34.1509L55.5855 35.4679C55.718 35.4918 55.8442 35.5422 55.9568 35.6161C56.0693 35.69 56.1657 35.7858 56.2402 35.8979C56.3147 36.01 56.3658 36.136 56.3905 36.2683C56.4151 36.4006 56.4127 36.5365 56.3835 36.6679L52.7385 55.5919C52.6786 55.8667 52.5136 56.1072 52.2787 56.262C52.0438 56.4167 51.7577 56.4734 51.4815 56.4199L47.8995 55.7149C47.2275 55.5619 46.9995 56.6149 47.6865 56.7559L51.2865 57.4609C51.558 57.5164 51.8379 57.5176 52.1098 57.4644C52.3818 57.4112 52.6406 57.3047 52.8712 57.1511C53.1019 56.9974 53.2998 56.7996 53.4536 56.5691C53.6075 56.3386 53.7141 56.0799 53.7675 55.8079L57.4425 36.8779C57.4996 36.6057 57.5009 36.3247 57.4462 36.052C57.3915 35.7793 57.282 35.5205 57.1244 35.2914C56.9668 35.0622 56.7642 34.8674 56.5291 34.7188C56.294 34.5703 56.0312 34.4709 55.7565 34.4269L55.7835 34.4299ZM35.2995 36.7999C35.3292 36.9409 35.3304 37.0863 35.3032 37.2278C35.2759 37.3692 35.2207 37.5038 35.1408 37.6236C35.0609 37.7435 34.9579 37.8462 34.8379 37.9257C34.7178 38.0053 34.583 38.0601 34.4415 38.0869L32.2665 38.4859L34.9005 34.6879L35.2995 36.7999ZM50.3505 53.4499L36.0195 56.2369C35.8758 56.2632 35.7284 56.2607 35.5856 56.2296C35.4429 56.1985 35.3078 56.1394 35.1881 56.0557C35.0684 55.972 34.9665 55.8653 34.8883 55.742C34.8101 55.6186 34.7571 55.4809 34.7325 55.3369L31.6695 39.6949L34.6425 39.1129C35.2056 39.0012 35.7016 38.6713 36.0225 38.1953C36.3434 37.7193 36.4631 37.1358 36.3555 36.5719L35.7735 33.5989L46.0995 31.5799C46.3832 31.5257 46.6769 31.5849 46.9175 31.7448C47.1581 31.9046 47.3265 32.1524 47.3865 32.4349L51.2385 52.1629C51.2851 52.4523 51.2173 52.7485 51.0493 52.9888C50.8813 53.229 50.6264 53.3944 50.3385 53.4499H50.3505ZM42.4185 36.6019L46.3995 35.8369C46.4679 35.8229 46.5328 35.7956 46.5906 35.7565C46.6484 35.7175 46.6979 35.6674 46.7364 35.6092C46.7748 35.5509 46.8014 35.4857 46.8147 35.4172C46.8279 35.3487 46.8275 35.2783 46.8135 35.2099C46.7995 35.1416 46.7722 35.0766 46.7331 35.0188C46.6941 34.961 46.644 34.9115 46.5858 34.8731C46.5275 34.8346 46.4623 34.808 46.3938 34.7948C46.3253 34.7816 46.2549 34.7819 46.1865 34.7959L42.1995 35.5609C42.0615 35.5892 41.9403 35.6711 41.8627 35.7887C41.785 35.9063 41.7573 36.0499 41.7855 36.1879C41.8138 36.326 41.8957 36.4471 42.0133 36.5248C42.1309 36.6024 42.2745 36.6302 42.4125 36.6019H42.4185ZM37.0605 42.4519C36.9419 42.3779 36.7992 42.3524 36.6623 42.3809C36.5254 42.4094 36.4047 42.4897 36.3255 42.6049C36.2492 42.7229 36.2224 42.8663 36.2511 43.0038C36.2797 43.1414 36.3614 43.2622 36.4785 43.3399L37.4265 43.9999C37.484 44.0406 37.5493 44.069 37.6182 44.0833C37.6872 44.0977 37.7584 44.0977 37.8273 44.0833C37.8963 44.069 37.9615 44.0406 38.019 43.9999C38.0765 43.9592 38.125 43.9072 38.1615 43.8469L39.3615 42.0469C39.7605 41.4649 38.8725 40.8829 38.4615 41.4649L37.5795 42.7999L37.0605 42.4519ZM38.6535 45.9439C38.792 45.9153 38.9134 45.8328 38.991 45.7147C39.0686 45.5965 39.0962 45.4524 39.0675 45.3139C39.0389 45.1755 38.9564 45.0541 38.8383 44.9764C38.7201 44.8988 38.576 44.8713 38.4375 44.8999L35.6835 45.4219L35.0385 42.1219L37.7955 41.5699C37.8639 41.5557 37.9288 41.5282 37.9865 41.489C38.0442 41.4497 38.0936 41.3995 38.1319 41.3411C38.1702 41.2827 38.1967 41.2174 38.2097 41.1488C38.2228 41.0803 38.2222 41.0098 38.208 40.9414C38.1938 40.8731 38.1663 40.8082 38.1271 40.7505C38.0878 40.6927 38.0376 40.6433 37.9792 40.605C37.9208 40.5667 37.8555 40.5403 37.7869 40.5272C37.7183 40.5142 37.6479 40.5147 37.5795 40.5289L34.3035 41.1649C34.1677 41.1946 34.0481 41.2744 33.9686 41.3884C33.889 41.5024 33.8555 41.6422 33.8745 41.7799L34.7325 46.1599C34.7674 46.2988 34.8529 46.4197 34.9721 46.499C35.0914 46.5784 35.2359 46.6104 35.3775 46.5889L38.6535 45.9439Z" fill="white"/>
</svg>
