<svg width="40" height="40" viewBox="0 0 40 40" fill="none" xmlns="http://www.w3.org/2000/svg">
<path d="M20.0002 0.5C30.7698 0.5 39.5002 9.23045 39.5002 20C39.5002 30.7696 30.7698 39.5 20.0002 39.5C9.23069 39.5 0.500244 30.7696 0.500244 20C0.500244 9.23045 9.23069 0.5 20.0002 0.5Z" stroke="white"/>
<path d="M25.2677 22.1761C25.1711 21.849 25.0539 21.5644 24.9162 21.3226C24.7787 21.0806 24.5816 20.8446 24.3248 20.6137C24.0682 20.383 23.8374 20.1971 23.6328 20.0558C23.4282 19.9144 23.1473 19.7564 22.7901 19.5814C22.4331 19.4065 22.1504 19.2763 21.9422 19.1907C21.7338 19.1052 21.4322 18.988 21.0378 18.8392C20.6882 18.7053 20.4278 18.603 20.2565 18.5323C20.0854 18.4616 19.8604 18.3612 19.5814 18.2309C19.3024 18.1008 19.0941 17.9854 18.9564 17.885C18.8188 17.7847 18.6719 17.6619 18.5156 17.5168C18.3593 17.3718 18.2496 17.2174 18.1863 17.0537C18.1231 16.89 18.0915 16.7113 18.0915 16.5179C18.0915 16.012 18.3146 15.599 18.761 15.2791C19.2075 14.9593 19.7842 14.7993 20.4911 14.7993C20.8035 14.7993 21.1219 14.842 21.4453 14.9276C21.7688 15.0133 22.046 15.1098 22.2767 15.2177C22.5075 15.3257 22.7251 15.4448 22.9298 15.5749C23.1344 15.7052 23.2794 15.8037 23.3651 15.8706C23.4507 15.9376 23.5049 15.9822 23.527 16.0046C23.6238 16.079 23.724 16.105 23.8282 16.0828C23.9398 16.0753 24.0254 16.0157 24.0851 15.9042L24.9893 14.2747C25.0785 14.126 25.0601 13.9846 24.9335 13.8506C24.8888 13.8059 24.8332 13.7539 24.7658 13.6943C24.699 13.6348 24.5538 13.5269 24.3304 13.3706C24.1073 13.2144 23.871 13.0748 23.6219 12.9521C23.3726 12.8294 23.0488 12.7047 22.6507 12.5783C22.2528 12.4516 21.8416 12.3661 21.4174 12.3215V10.3571C21.4174 10.253 21.384 10.1674 21.3172 10.1004C21.2503 10.0336 21.1647 10 21.0603 10H19.5535C19.4568 10 19.3731 10.0353 19.3024 10.106C19.2317 10.1767 19.1964 10.2604 19.1964 10.3571V12.3661C18.0282 12.5892 17.0795 13.0878 16.3503 13.8616C15.6212 14.6355 15.2565 15.5356 15.2565 16.5625C15.2565 16.8676 15.2883 17.1577 15.3515 17.4329C15.4147 17.7083 15.4929 17.9557 15.5859 18.1752C15.6789 18.3948 15.811 18.6105 15.9821 18.8226C16.1532 19.0346 16.3151 19.217 16.4676 19.3694C16.6202 19.5218 16.8192 19.68 17.0647 19.8437C17.3103 20.0074 17.5205 20.1396 17.6954 20.24C17.8703 20.3401 18.1028 20.4558 18.3929 20.5857C18.6831 20.716 18.912 20.8145 19.0794 20.8816C19.2468 20.9485 19.4756 21.0416 19.7659 21.1604C20.1676 21.3166 20.4653 21.4376 20.6587 21.5232C20.8523 21.6088 21.0978 21.7278 21.3956 21.8804C21.6931 22.0328 21.9106 22.1723 22.0484 22.2988C22.186 22.4254 22.3106 22.5816 22.4223 22.7676C22.534 22.9536 22.5899 23.1507 22.5899 23.3592C22.5899 23.947 22.3611 24.4008 21.9034 24.7205C21.4459 25.0405 20.9156 25.2005 20.313 25.2005C20.0379 25.2005 19.7624 25.1709 19.4872 25.1114C18.5199 24.9177 17.6159 24.4526 16.7751 23.7161L16.7528 23.6938C16.6858 23.6121 16.5965 23.5786 16.485 23.5936C16.3659 23.6084 16.2803 23.6531 16.2283 23.7277L15.0787 25.2342C14.967 25.383 14.9746 25.5355 15.101 25.6918C15.1383 25.7365 15.2034 25.8036 15.2963 25.8927C15.3895 25.9822 15.5625 26.1215 15.8154 26.3116C16.0683 26.5014 16.3436 26.6797 16.6413 26.8474C16.939 27.0147 17.3165 27.1802 17.7742 27.344C18.2319 27.5074 18.7061 27.6227 19.1972 27.6896V29.6428C19.1972 29.7396 19.2326 29.8233 19.3032 29.894C19.3739 29.9648 19.4576 30 19.5543 30H21.0611C21.1655 30 21.2511 29.9666 21.318 29.8997C21.3849 29.8328 21.4182 29.7472 21.4182 29.6428V27.6897C22.6014 27.4963 23.5631 26.9884 24.3034 26.1662C25.0437 25.344 25.414 24.3637 25.414 23.2254C25.4136 22.8534 25.3653 22.5037 25.2677 22.1761Z" fill="white"/>
</svg>
