<svg width="40" height="41" viewBox="0 0 40 41" fill="none" xmlns="http://www.w3.org/2000/svg">
<g clip-path="url(#clip0_105_3606)">
<path d="M40 20.1553C40 9.10958 31.0457 0.155273 20 0.155273C8.9543 0.155273 0 9.10958 0 20.1553C0 31.201 8.9543 40.1553 20 40.1553C31.0457 40.1553 40 31.201 40 20.1553Z" fill="#D015FF"/>
<path d="M14.8328 20.1553L7.22422 27.7631C7.00234 27.3607 6.875 26.8982 6.875 26.4053V13.9053C6.875 13.4123 7.00234 12.9498 7.22422 12.5475L14.8328 20.1553ZM21.9891 22.2287L26.4477 17.7701C25.457 16.7803 24.8438 15.4131 24.8438 13.9053C24.8438 12.8771 25.1289 11.9154 25.6242 11.0928H9.6875C8.91094 11.0928 8.20781 11.4076 7.69844 11.9162L18.0109 22.2287C19.1094 23.3271 20.8906 23.3271 21.9891 22.2287ZM22.5414 22.7818C21.8625 23.46 20.9602 23.8342 20 23.8342C19.0398 23.8342 18.1375 23.46 17.4586 22.7818L15.3852 20.7076L7.69844 28.3943C8.20781 28.9029 8.91094 29.2178 9.6875 29.2178H30.3125C31.0891 29.2178 31.7922 28.9029 32.3016 28.3943L24.6148 20.7076L22.5414 22.7818ZM27.0391 18.2834L25.1672 20.1553L32.7758 27.7631C32.9977 27.3607 33.125 26.8982 33.125 26.4053V18.5936C32.3023 19.0889 31.3406 19.374 30.3125 19.374C29.0859 19.374 27.9523 18.9678 27.0391 18.2834ZM35 13.9053C35 16.4943 32.9016 18.5928 30.3125 18.5928C27.7234 18.5928 25.625 16.4943 25.625 13.9053C25.625 11.3162 27.7234 9.21777 30.3125 9.21777C32.9016 9.21777 35 11.3162 35 13.9053ZM31.6828 14.1818C31.7563 14.1076 31.7969 14.0092 31.7969 13.9053C31.7969 13.8014 31.7563 13.7029 31.6828 13.6287L30.2078 12.1545C30.1344 12.0811 30.0359 12.0404 29.932 12.0404C29.8281 12.0404 29.7297 12.0811 29.6555 12.1545C29.582 12.2287 29.5414 12.3264 29.5414 12.4311C29.5414 12.5357 29.582 12.6334 29.6555 12.7068L30.4633 13.5146H27.6562C27.4406 13.5146 27.2656 13.6896 27.2656 13.9053C27.2656 14.1209 27.4406 14.2959 27.6562 14.2959H30.4633L29.6555 15.1037C29.582 15.1771 29.5414 15.2756 29.5414 15.3795C29.5414 15.4834 29.582 15.5818 29.6555 15.6561C29.7297 15.7295 29.8273 15.7701 29.932 15.7701C30.0367 15.7701 30.1344 15.7295 30.2078 15.6561L31.6828 14.1818ZM33.3594 11.4162C33.3594 11.2006 33.1844 11.0256 32.9688 11.0256H31.5445C31.3289 11.0256 31.1539 11.2006 31.1539 11.4162C31.1539 11.6318 31.3289 11.8068 31.5445 11.8068H32.5781V16.0037H31.5445C31.3289 16.0037 31.1539 16.1795 31.1539 16.3943C31.1539 16.6092 31.3289 16.785 31.5445 16.785H32.9688C33.1844 16.785 33.3594 16.61 33.3594 16.3943V11.4162Z" fill="white"/>
</g>
<defs>
<clipPath id="clip0_105_3606">
<rect width="40" height="40" fill="white" transform="translate(0 0.155273)"/>
</clipPath>
</defs>
</svg>
