<svg width="80" height="80" viewBox="0 0 80 80" fill="none" xmlns="http://www.w3.org/2000/svg">
<rect x="0.483875" y="0.527942" width="71.032" height="69.032" rx="11.516" stroke="#4555FF" stroke-width="0.967994" stroke-dasharray="3.87 3.87"/>
<rect x="7.99988" y="8.04395" width="72" height="71" rx="12" fill="#D015FF"/>
<path d="M39.3655 37.5761H37.4539C36.9939 37.5761 36.6196 37.2014 36.6196 36.7409C36.6196 36.2788 36.9933 35.9057 37.4538 35.9057C37.4581 35.9057 37.4623 35.9057 37.4666 35.9057H39.2972C39.6259 35.909 39.9509 36.0567 40.1894 36.3113C40.5225 36.6669 41.0809 36.685 41.4365 36.352C41.7921 36.0188 41.8104 35.4604 41.4772 35.1048C40.9091 34.4983 40.1183 34.1471 39.3075 34.141C39.3052 34.141 39.3031 34.141 39.3009 34.141H39.2921V33.357C39.2921 32.8697 38.8971 32.4746 38.4098 32.4746C37.9225 32.4746 37.5274 32.8697 37.5274 33.357V34.141C35.9259 34.141 34.855 35.3696 34.855 36.7408C34.855 38.1744 36.0209 39.3408 37.454 39.3408H39.3656C39.8256 39.3408 40.1999 39.7155 40.1999 40.176C40.1999 40.6382 39.8262 41.0112 39.3657 41.0112C39.3615 41.0112 39.3572 41.0111 39.353 41.0111H37.3557C37.1235 41.0088 36.877 40.9251 36.6612 40.7752C36.2608 40.4972 35.711 40.5964 35.4332 40.9968C35.1553 41.3972 35.2545 41.9469 35.6548 42.2247C36.2903 42.666 36.8628 42.7758 37.5275 42.7758V43.5598C37.5275 44.0471 37.9225 44.4422 38.4098 44.4422C38.8971 44.4422 39.2922 44.0471 39.2922 43.5598V42.7758C40.9052 42.7758 41.9646 41.5365 41.9646 40.176C41.9645 38.7424 40.7986 37.5761 39.3655 37.5761Z" fill="white"/>
<path d="M47.6146 40.424C48.8642 34.5393 44.3564 29.0439 38.41 29.0439C33.2212 29.0439 28.9999 33.2674 28.9999 38.4587C28.9999 44.4083 34.4971 48.9258 40.3863 47.6652C39.1376 53.5289 43.6262 59.0439 49.5898 59.0439C54.7785 59.0439 58.9999 54.8205 58.9999 49.6293C58.9999 43.6813 53.5032 39.1605 47.6146 40.424ZM30.7646 38.4587C30.7646 34.2405 34.1943 30.8086 38.41 30.8086C43.7175 30.8086 47.429 36.1258 45.583 41.1121C43.6051 42.0471 42.0033 43.652 41.0712 45.6323C36.0895 47.4867 30.7646 43.7775 30.7646 38.4587ZM49.5898 57.2793C45.3741 57.2793 41.9444 53.8475 41.9444 49.6293C41.9444 45.4111 45.3741 41.9793 49.5898 41.9793C53.8055 41.9793 57.2352 45.4111 57.2352 49.6293C57.2352 53.8475 53.8055 57.2793 49.5898 57.2793Z" fill="white"/>
<path d="M52.6008 52.7233C51.369 52.3323 50.0818 52.208 48.8131 52.352C48.9919 51.8035 49.1179 51.2406 49.1904 50.6692H50.2478C50.7351 50.6692 51.1301 50.2741 51.1301 49.7869C51.1301 49.2995 50.7351 48.9044 50.2478 48.9044H49.2432C49.225 48.6254 49.2137 48.5459 49.1391 47.8643C49.0153 46.7347 50.4174 46.1306 51.1597 46.9678C51.4829 47.3323 52.0406 47.366 52.4053 47.0426C52.7699 46.7193 52.8035 46.1617 52.4801 45.797C50.6075 43.6848 47.0732 45.2162 47.3849 48.0566C47.4645 48.7828 47.4586 48.7177 47.4736 48.9044H46.846C46.3587 48.9044 45.9636 49.2995 45.9636 49.7868C45.9636 50.2741 46.3587 50.6691 46.846 50.6691H47.4075C47.2718 51.528 46.9854 52.3601 46.5539 53.1347C46.1726 53.8188 46.8097 54.6262 47.5637 54.4135C49.0578 53.9929 50.451 53.8921 52.0669 54.4051C52.5306 54.5525 53.0273 54.2963 53.1749 53.8312C53.3222 53.3668 53.0652 52.8708 52.6008 52.7233Z" fill="white"/>
<path d="M50.9117 31.8189C52.6408 31.8189 54.4783 33.1245 54.4783 35.5441V36.3749L53.6837 35.5798C53.3392 35.2351 52.7806 35.2351 52.4359 35.5795C52.0912 35.924 52.0911 36.4827 52.4356 36.8273L54.7366 39.1297C55.0779 39.4714 55.6383 39.4764 55.9847 39.1297L58.2858 36.8273C58.6303 36.4827 58.6301 35.924 58.2855 35.5795C57.9408 35.235 57.3821 35.2351 57.0376 35.5798L56.2429 36.375V35.5441C56.2429 32.334 53.8042 30.0542 50.9116 30.0542C50.4244 30.0542 50.0293 30.4493 50.0293 30.9366C50.0293 31.4238 50.4244 31.8189 50.9117 31.8189Z" fill="white"/>
<path d="M37.0885 56.2692C35.3595 56.2692 33.5219 54.9637 33.5219 52.5441V51.7132L34.3166 52.5084C34.661 52.8529 35.2196 52.8533 35.5644 52.5087C35.9091 52.1642 35.9093 51.6055 35.5648 51.2609L33.2637 48.9584C32.9223 48.6164 32.3608 48.6125 32.0156 48.9584L29.7143 51.261C29.3698 51.6055 29.37 52.1642 29.7147 52.5088C30.0593 52.8532 30.618 52.8531 30.9625 52.5084L31.7572 51.7133V52.5441C31.7572 55.7542 34.1959 58.034 37.0885 58.034C37.5758 58.034 37.9709 57.639 37.9709 57.1517C37.9709 56.6643 37.5758 56.2692 37.0885 56.2692Z" fill="white"/>
</svg>
