<svg width="32" height="32" viewBox="0 0 32 32" fill="none" xmlns="http://www.w3.org/2000/svg">
<path d="M3.67722 14.093C3.52815 14.093 3.39803 13.9833 3.37697 13.8315L2.74415 9.30227C2.72103 9.13627 2.83666 8.98289 3.00259 8.95977C3.16766 8.93427 3.32209 9.05227 3.34522 9.21839L3.97803 13.7476C4.00116 13.9136 3.88553 14.067 3.71959 14.0901C3.70534 14.0921 3.69115 14.093 3.67722 14.093Z" fill="#00D2FF"/>
<path d="M30.7701 25.4435L27.4802 9.96598V6.01161C27.4802 5.13311 26.7653 4.41836 25.8868 4.41836H22.1841C22.5468 4.00523 22.7676 3.4648 22.7676 2.87273C22.7676 1.57617 21.7128 0.521484 20.4164 0.521484C19.3384 0.521484 18.4315 1.2523 18.1556 2.24361C16.9058 2.30342 15.878 3.21936 15.6498 4.41836H6.11821C5.23971 4.41836 4.52484 5.13311 4.52484 6.01161V7.21492L2.56721 7.48836C1.69734 7.60986 1.08827 8.41648 1.20977 9.28655L3.8544 28.2207C3.9749 29.0832 4.77502 29.7005 5.65283 29.5781L8.10771 29.2352L8.31621 30.216C8.49727 31.0696 9.33746 31.6281 10.206 31.4433L29.5428 27.3333C30.402 27.1505 30.9523 26.3029 30.7701 25.4435ZM20.4165 1.12848C21.3782 1.12848 22.1607 1.91092 22.1607 2.87273C22.1607 4.34161 20.9496 4.39705 20.9192 4.41836C20.7139 3.33955 19.8616 2.4888 18.7823 2.28523C19.0247 1.61323 19.6619 1.12848 20.4165 1.12848ZM18.2845 2.84411C19.4295 2.84411 20.361 3.77567 20.361 4.92061C20.361 6.06555 19.4295 6.99711 18.2845 6.99711C17.1396 6.99711 16.208 6.06555 16.208 4.92061C16.208 3.77567 17.1396 2.84411 18.2845 2.84411ZM5.13183 6.01161C5.13183 5.46773 5.57434 5.02536 6.11821 5.02536H15.6063C15.6303 5.6403 15.8596 6.20292 16.2309 6.64448L15.16 7.71536C15.0415 7.83392 15.0415 8.02598 15.16 8.14455C15.2786 8.26311 15.4706 8.26311 15.5892 8.14455L16.6728 7.06098C17.1222 7.4003 17.6793 7.60411 18.2845 7.60411C19.6843 7.60411 20.8357 6.5263 20.956 5.15711C21.9778 4.91586 23.0642 5.08392 25.8868 5.02542C26.4306 5.02542 26.8731 5.4678 26.8731 6.01167V25.1294C26.8731 25.6733 26.4306 26.1157 25.8868 26.1157H6.11821C5.57434 26.1157 5.13183 25.6733 5.13183 25.1294V6.01161ZM5.56871 28.977C5.03196 29.0516 4.53109 28.6752 4.45546 28.1367L1.81084 9.20261C1.73584 8.66405 2.11284 8.16467 2.6514 8.08936L4.52484 7.82767V25.1293C4.52484 26.0078 5.23971 26.7225 6.11821 26.7225C9.15321 26.7217 16.0331 26.7199 21.7088 26.7225C7.87734 28.6807 17.24 27.4019 5.56871 28.977ZM29.4165 26.7396L10.0797 30.8496C9.54427 30.963 9.02258 30.621 8.91015 30.0898L8.71059 29.151C8.75352 29.1449 24.6526 26.897 25.8868 26.7225C26.7653 26.7225 27.4802 26.0078 27.4802 25.1293V12.8865L30.1761 25.5696C30.289 26.1016 29.9482 26.6265 29.4165 26.7396Z" fill="#00D2FF"/>
<path d="M7.96854 11.4957H24.0365C24.2042 11.4957 24.34 11.3598 24.34 11.1922C24.34 11.0245 24.2042 10.8887 24.0365 10.8887H7.96854C7.80079 10.8887 7.66504 11.0245 7.66504 11.1922C7.66504 11.3598 7.80073 11.4957 7.96854 11.4957Z" fill="#00D2FF"/>
<path d="M7.96854 15.1002H12.0483C12.216 15.1002 12.3518 14.9643 12.3518 14.7967C12.3518 14.629 12.216 14.4932 12.0483 14.4932H7.96854C7.80079 14.4932 7.66504 14.629 7.66504 14.7967C7.66504 14.9643 7.80073 15.1002 7.96854 15.1002Z" fill="#00D2FF"/>
<path d="M24.037 14.493H13.9051C13.7373 14.493 13.6016 14.6289 13.6016 14.7965C13.6016 14.9642 13.7373 15.1 13.9051 15.1H24.037C24.2048 15.1 24.3405 14.9642 24.3405 14.7965C24.3405 14.6289 24.2048 14.493 24.037 14.493Z" fill="#00D2FF"/>
<path d="M24.0366 18.0977H19.9568C19.7891 18.0977 19.6533 18.2335 19.6533 18.4012C19.6533 18.5688 19.7891 18.7047 19.9568 18.7047H24.0366C24.2043 18.7047 24.3401 18.5688 24.3401 18.4012C24.3401 18.2335 24.2043 18.0977 24.0366 18.0977Z" fill="#00D2FF"/>
<path d="M7.96854 18.7047H18.1005C18.2682 18.7047 18.404 18.5688 18.404 18.4012C18.404 18.2335 18.2682 18.0977 18.1005 18.0977H7.96854C7.80079 18.0977 7.66504 18.2335 7.66504 18.4012C7.66504 18.5687 7.80073 18.7047 7.96854 18.7047Z" fill="#00D2FF"/>
<path d="M7.96854 22.3091H12.0483C12.216 22.3091 12.3518 22.1733 12.3518 22.0056C12.3518 21.838 12.216 21.7021 12.0483 21.7021H7.96854C7.80079 21.7021 7.66504 21.838 7.66504 22.0056C7.66504 22.1732 7.80073 22.3091 7.96854 22.3091Z" fill="#00D2FF"/>
<path d="M24.037 21.702H13.9051C13.7373 21.702 13.6016 21.8379 13.6016 22.0055C13.6016 22.1732 13.7373 22.309 13.9051 22.309H24.037C24.2048 22.309 24.3405 22.1732 24.3405 22.0055C24.3405 21.8379 24.2048 21.702 24.037 21.702Z" fill="#00D2FF"/>
</svg>
