<svg width="80" height="80" viewBox="0 0 80 80" fill="none" xmlns="http://www.w3.org/2000/svg">
<rect x="0.483997" y="0.527942" width="71.032" height="69.032" rx="11.516" stroke="#FF0B8F" stroke-width="0.967994" stroke-dasharray="3.87 3.87"/>
<rect x="8" y="8.04395" width="72" height="71" rx="12" fill="#D015FF"/>
<path d="M30.0156 40.7923C30.0156 41.1442 30.3006 41.4292 30.6525 41.4292C31.0045 41.4292 31.2891 41.1442 31.2891 40.7923C31.2891 38.1922 33.4044 36.077 36.0047 36.077H36.8519C37.2039 36.077 37.4885 35.792 37.4885 35.4401C37.4885 35.0883 37.2039 34.8032 36.8519 34.8032H36.0047C32.702 34.8032 30.0156 37.4896 30.0156 40.7923Z" fill="white" stroke="white" stroke-width="0.202703"/>
<path d="M49.169 38.0145C49.059 38.3487 48.6983 38.5301 48.3649 38.4208C48.0311 38.3108 47.8497 37.9507 47.9589 37.6168C48.1323 37.0892 48.2204 36.5368 48.2204 35.9758C48.2204 33.0794 45.8638 30.7225 42.9675 30.7225C40.0711 30.7225 37.7145 33.0794 37.7145 35.9758C37.7145 36.5771 37.8152 37.1659 38.0128 37.7269L49.169 38.0145ZM49.169 38.0145C49.3847 37.3581 49.4942 36.6725 49.4942 35.9758C49.4942 32.3765 46.5667 29.449 42.9675 29.449C39.3684 29.449 36.4409 32.3765 36.4409 35.9758C36.4409 36.7215 36.5657 37.4535 36.8125 38.1511L49.169 38.0145Z" fill="white"/>
<path d="M49.169 38.0145C49.059 38.3487 48.6983 38.5301 48.3649 38.4208C48.0311 38.3108 47.8497 37.9507 47.9589 37.6168C48.1323 37.0892 48.2204 36.5368 48.2204 35.9758C48.2204 33.0794 45.8638 30.7225 42.9675 30.7225C40.0711 30.7225 37.7145 33.0794 37.7145 35.9758C37.7145 36.5771 37.8152 37.1659 38.0128 37.7269L49.169 38.0145ZM49.169 38.0145C49.3847 37.3581 49.4942 36.6725 49.4942 35.9758C49.4942 32.3765 46.5667 29.449 42.9675 29.449C39.3684 29.449 36.4409 32.3765 36.4409 35.9758C36.4409 36.7215 36.5657 37.4535 36.8125 38.1511L49.169 38.0145Z" stroke="white" stroke-width="0.202703"/>
<path d="M42.3313 33.2982C42.3313 33.6501 42.6158 33.9351 42.9679 33.9351C43.3198 33.9351 43.6048 33.6502 43.6048 33.2982V32.2274C43.6048 31.8754 43.3198 31.5908 42.9679 31.5908C42.6159 31.5908 42.3313 31.8755 42.3313 32.2274V33.2982Z" fill="white" stroke="white" stroke-width="0.202703"/>
<path d="M32.9697 58.0302H53.5007C55.1297 58.0302 56.4551 56.7051 56.4548 55.0759V40.4351C56.4548 38.8061 55.1297 37.4807 53.5007 37.4807H32.9697C31.3411 37.4807 30.0156 38.8061 30.0156 40.4351V55.0762C30.0156 56.7051 31.3411 58.0302 32.9697 58.0302ZM31.2891 40.4351C31.2891 39.5085 32.0434 38.7545 32.9697 38.7545H53.5007C54.427 38.7545 55.1812 39.5085 55.1812 40.4351V55.0762C55.1812 56.0025 54.4273 56.7568 53.5007 56.7568H32.9697C32.0434 56.7568 31.2891 56.0025 31.2891 55.0759V40.4351Z" fill="white" stroke="white" stroke-width="0.202703"/>
<path d="M49.6605 52.1402H55.8181C56.17 52.1402 56.455 51.8556 56.455 51.5036V45.6137C56.455 45.2617 56.17 44.9768 55.8181 44.9768H49.6605C47.6856 44.9768 46.0789 46.5835 46.0789 48.5586C46.0789 50.5335 47.6856 52.1402 49.6605 52.1402ZM47.3524 48.5586C47.3524 47.2858 48.388 46.2503 49.6605 46.2503H55.1815V50.8667H49.6605C48.388 50.8667 47.3524 49.8311 47.3524 48.5586Z" fill="white" stroke="white" stroke-width="0.202703"/>
<path d="M47.6855 48.5588C47.6855 49.6479 48.5716 50.5339 49.6607 50.5339C50.7501 50.5339 51.6362 49.6479 51.6362 48.5588C51.6362 47.4694 50.7501 46.5833 49.6607 46.5833C48.5716 46.5833 47.6855 47.4694 47.6855 48.5588ZM48.959 48.5588C48.959 48.1717 49.274 47.8568 49.6607 47.8568C50.0478 47.8568 50.3627 48.1717 50.3627 48.5588C50.3627 48.9455 50.0478 49.2605 49.6607 49.2605C49.2739 49.2605 48.959 48.9455 48.959 48.5588Z" fill="white" stroke="white" stroke-width="0.202703"/>
<path d="M31.7233 41.2285H30.6525C30.4125 41.2285 30.2183 41.0343 30.2183 40.7943C30.2183 40.5544 30.4124 40.3604 30.6525 40.3604H31.7233C31.9633 40.3604 32.1575 40.5544 32.1575 40.7943C32.1575 41.0343 31.9633 41.2285 31.7233 41.2285Z" fill="white" stroke="white" stroke-width="0.202703"/>
<path d="M52.6541 41.2285H50.5609C50.3209 41.2285 50.1268 41.0343 50.1268 40.7943C50.1268 40.5544 50.3209 40.3604 50.5609 40.3604H52.6541C52.8942 40.3604 53.0884 40.5544 53.0884 40.7943C53.0884 41.0342 52.8941 41.2285 52.6541 41.2285ZM48.4681 41.2285H46.3749C46.1349 41.2285 45.9406 41.0343 45.9406 40.7943C45.9406 40.5544 46.1348 40.3604 46.3749 40.3604H48.4681C48.7081 40.3604 48.9019 40.5543 48.9019 40.7943C48.9019 41.0343 48.708 41.2285 48.4681 41.2285ZM44.2823 41.2285H42.1891C41.9491 41.2285 41.7548 41.0343 41.7548 40.7943C41.7548 40.5544 41.949 40.3604 42.1891 40.3604H44.2823C44.5223 40.3604 44.7161 40.5543 44.7161 40.7943C44.7161 41.0343 44.5222 41.2285 44.2823 41.2285ZM40.0958 41.2285H38.0026C37.7627 41.2285 37.5688 41.0343 37.5688 40.7943C37.5688 40.5543 37.7626 40.3604 38.0026 40.3604H40.0958C40.3359 40.3604 40.5301 40.5544 40.5301 40.7943C40.5301 41.0343 40.3358 41.2285 40.0958 41.2285ZM35.9094 41.2285H33.8165C33.5765 41.2285 33.3823 41.0343 33.3823 40.7943C33.3823 40.5544 33.5765 40.3604 33.8165 40.3604H35.9097C36.1497 40.3604 36.3436 40.5543 36.3436 40.7943C36.3436 41.0343 36.1494 41.2285 35.9094 41.2285Z" fill="white" stroke="white" stroke-width="0.202703"/>
<path d="M55.818 41.2285H54.7472C54.5072 41.2285 54.313 41.0343 54.313 40.7943C54.313 40.5544 54.5071 40.3604 54.7472 40.3604H55.818C56.0581 40.3604 56.2522 40.5544 56.2522 40.7943C56.2522 41.0343 56.058 41.2285 55.818 41.2285Z" fill="white" stroke="white" stroke-width="0.202703"/>
<path d="M44.6158 38.0161C44.7313 37.8549 44.7915 37.654 44.7915 37.4269C44.7915 37.1417 44.6968 36.8931 44.5093 36.7162C44.3224 36.5398 44.0542 36.445 43.7259 36.445H42.3962C42.3619 36.445 42.3176 36.4537 42.2826 36.4887C42.2476 36.5237 42.2388 36.568 42.2388 36.6027V38.0161H41.3367V33.0244H43.6977C44.3561 33.0244 44.8247 33.189 45.1278 33.4629C45.4294 33.7355 45.5811 34.1291 45.5811 34.618C45.5811 35.3001 45.2663 35.6779 44.8953 35.8764L44.8418 35.905V35.9657V35.9847V36.0545L44.907 36.0794C45.2595 36.2141 45.6936 36.681 45.6936 37.4174C45.6936 37.6407 45.6618 37.8368 45.6098 38.0161H44.6158ZM42.3962 33.7954C42.3614 33.7954 42.3173 33.8044 42.2826 33.8392C42.2478 33.874 42.2388 33.918 42.2388 33.9528V35.5166C42.2388 35.5514 42.2478 35.5954 42.2826 35.6302C42.3173 35.665 42.3614 35.674 42.3962 35.674H43.6699C43.9708 35.674 44.2245 35.5835 44.4037 35.4164C44.5836 35.2487 44.6796 35.0123 44.6796 34.7396C44.6796 34.4628 44.584 34.224 44.404 34.0548C44.2247 33.8861 43.9708 33.7954 43.6699 33.7954H42.3962Z" fill="white" stroke="white" stroke-width="0.202703"/>
</svg>
