<svg width="40" height="40" viewBox="0 0 40 40" fill="none" xmlns="http://www.w3.org/2000/svg">
<g clip-path="url(#clip0_87_1160)">
<path d="M20 40C31.0457 40 40 31.0457 40 20C40 8.9543 31.0457 0 20 0C8.9543 0 0 8.9543 0 20C0 31.0457 8.9543 40 20 40Z" fill="#D015FF"/>
<path fill-rule="evenodd" clip-rule="evenodd" d="M19.9984 32.7995C19.9428 32.7995 19.8874 32.784 19.8384 32.7533L13.4299 28.7168L8.50989 31.2237C8.28024 31.3409 8.01714 31.1277 8.08374 30.8787L11.0821 19.6885C11.1173 19.5573 11.236 19.4662 11.3717 19.4662H13.7955C15.7996 21.9996 17.5203 24.6927 19.336 27.3722C19.6531 27.84 20.3434 27.84 20.6605 27.372C22.4763 24.6926 24.1969 21.9998 26.2011 19.4662H28.6245C28.7601 19.4662 28.8792 19.5574 28.9141 19.6885L31.9269 30.9567C31.9269 31.1867 31.6827 31.3236 31.4867 31.224L26.5666 28.7171L20.1582 32.7536C20.1093 32.7842 20.0538 32.7995 19.9983 32.7995H19.9984Z" fill="#FEFEFE"/>
<path fill-rule="evenodd" clip-rule="evenodd" d="M19.9982 27.2235C19.8986 27.2235 19.8058 27.1742 19.7498 27.0917L14.9045 19.9413C13.4242 18.5323 12.6094 16.633 12.6094 14.5894C12.6094 10.5153 15.9239 7.20056 19.9982 7.20056C24.0727 7.20056 27.3873 10.5153 27.3873 14.5894C27.3873 16.6333 26.5726 18.5325 25.092 19.9413L20.2465 27.0917C20.1907 27.1743 20.0977 27.2237 19.9981 27.2237L19.9982 27.2235ZM19.9982 19.0497C17.4212 19.0497 15.3247 16.953 15.3247 14.3761C15.3247 11.7991 17.4214 9.70272 19.9982 9.70272C22.5752 9.70272 24.672 11.7991 24.672 14.3763C24.672 16.9534 22.5752 19.0497 19.9982 19.0497Z" fill="#FEFEFE"/>
<path fill-rule="evenodd" clip-rule="evenodd" d="M19.9984 10.3026C17.7523 10.3026 15.9248 12.13 15.9248 14.3761C15.9248 16.6222 17.7523 18.4497 19.9984 18.4497C22.2445 18.4497 24.0719 16.6222 24.0719 14.3761C24.0719 12.1299 22.2445 10.3026 19.9984 10.3026ZM18.6482 14.5741C20.1635 14.5741 20.1632 16.8789 18.6482 16.8789C17.1335 16.8789 17.1326 14.5741 18.6482 14.5741ZM21.9137 16.716L17.6587 12.4606C17.3792 12.1815 17.8037 11.757 18.0829 12.0364L22.3381 16.2918C22.621 16.5745 22.1899 16.9912 21.9137 16.716ZM21.3485 14.1783C19.8328 14.1783 19.8335 11.8735 21.3485 11.8735C22.8631 11.8735 22.864 14.1783 21.3485 14.1783Z" fill="#FEFEFE"/>
<path fill-rule="evenodd" clip-rule="evenodd" d="M18.6484 15.174C18.1597 15.174 17.91 15.7692 18.2578 16.1171C18.7629 16.6224 19.56 15.8571 19.039 15.3359C18.9346 15.2315 18.796 15.174 18.6484 15.174Z" fill="#FEFEFE"/>
<path fill-rule="evenodd" clip-rule="evenodd" d="M21.3485 12.4735C20.8598 12.4735 20.6102 13.0687 20.9579 13.4166C21.4627 13.9216 22.2601 13.1563 21.739 12.6354C21.6346 12.531 21.4961 12.4735 21.3487 12.4735H21.3485Z" fill="#FEFEFE"/>
</g>
<defs>
<clipPath id="clip0_87_1160">
<rect width="40" height="40" fill="white"/>
</clipPath>
</defs>
</svg>
