<svg width="85" height="169" viewBox="0 0 85 169" fill="none" xmlns="http://www.w3.org/2000/svg">
<g clip-path="url(#clip0_89_2173)">
<g opacity="0.4">
<path opacity="0.1" d="M-5.94036 151.941C-43.0421 151.941 -73.119 121.523 -73.119 84C-73.119 46.4772 -43.0421 16.059 -5.94035 16.059C31.1614 16.059 61.2383 46.4772 61.2383 84C61.2383 121.523 31.1614 151.941 -5.94036 151.941ZM-5.94035 19.5933C-41.112 19.5933 -69.6243 48.4292 -69.6243 84C-69.6243 119.571 -41.1121 148.407 -5.94036 148.407C29.2313 148.407 57.7436 119.571 57.7436 84C57.7436 48.4292 29.2313 19.5933 -5.94035 19.5933Z" fill="url(#paint0_linear_89_2173)"/>
<path opacity="0.1" d="M-5.93957 163.801C-49.4978 163.801 -84.8088 128.073 -84.8088 84C-84.8088 39.927 -49.4978 4.19885 -5.93956 4.19885C37.6187 4.19885 72.9297 39.927 72.9297 84C72.9297 128.073 37.6187 163.801 -5.93957 163.801ZM-5.93956 8.35012C-47.2319 8.35012 -80.706 42.2197 -80.706 84C-80.706 125.78 -47.2319 159.65 -5.93957 159.65C35.3528 159.65 68.8269 125.78 68.8269 84C68.8269 42.2197 35.3528 8.35013 -5.93956 8.35012Z" fill="url(#paint1_linear_89_2173)" fill-opacity="0.4"/>
<path opacity="0.1" d="M-5.93974 176C-56.1417 176 -96.8384 134.81 -96.8384 84C-96.8384 33.1898 -56.1417 -8.00001 -5.93973 -8C44.2622 -8 84.959 33.1898 84.959 84C84.959 134.81 44.2622 176 -5.93974 176ZM-5.93973 -3.21414C-53.5302 -3.21414 -92.1099 35.833 -92.1099 84C-92.1099 132.167 -53.5302 171.214 -5.93974 171.214C41.6507 171.214 80.2304 132.167 80.2304 84C80.2304 35.833 41.6507 -3.21414 -5.93973 -3.21414Z" fill="url(#paint2_linear_89_2173)" fill-opacity="0.2"/>
<path opacity="0.2" d="M-5.94015 140.759C-37.3339 140.759 -62.7836 115.347 -62.7836 84.0001C-62.7836 52.6531 -37.3339 27.2413 -5.94014 27.2413C25.4536 27.2413 50.9033 52.6531 50.9033 84.0001C50.9033 115.347 25.4536 140.759 -5.94015 140.759ZM-5.94014 30.1939C-35.7008 30.1939 -59.8266 54.2838 -59.8266 84.0001C-59.8266 113.716 -35.7008 137.806 -5.94015 137.806C23.8205 137.806 47.9463 113.716 47.9463 84.0001C47.9463 54.2838 23.8205 30.1939 -5.94014 30.1939Z" fill="url(#paint3_linear_89_2173)"/>
<ellipse cx="-5.93992" cy="83.9997" rx="46.7624" ry="46.8471" transform="rotate(90 -5.93992 83.9997)" fill="url(#paint4_linear_89_2173)"/>
</g>
</g>
<defs>
<linearGradient id="paint0_linear_89_2173" x1="-29.0117" y1="16.059" x2="-28.924" y2="151.955" gradientUnits="userSpaceOnUse">
<stop stop-color="#CB47A0"/>
<stop offset="0.494792" stop-color="#6947CB"/>
<stop offset="1" stop-color="#00FF85"/>
</linearGradient>
<linearGradient id="paint1_linear_89_2173" x1="-33.0259" y1="4.19885" x2="-32.9228" y2="163.818" gradientUnits="userSpaceOnUse">
<stop stop-color="#CB47A0"/>
<stop offset="0.494792" stop-color="#6947CB"/>
<stop offset="1" stop-color="#00FF85"/>
</linearGradient>
<linearGradient id="paint2_linear_89_2173" x1="-37.1574" y1="-8.00001" x2="-37.0385" y2="176.019" gradientUnits="userSpaceOnUse">
<stop stop-color="#CB47A0"/>
<stop offset="0.494792" stop-color="#6947CB"/>
<stop offset="1" stop-color="#00FF85"/>
</linearGradient>
<linearGradient id="paint3_linear_89_2173" x1="-25.4621" y1="27.2413" x2="-25.3897" y2="140.771" gradientUnits="userSpaceOnUse">
<stop stop-color="#CB47A0"/>
<stop offset="0.494792" stop-color="#6947CB"/>
<stop offset="1" stop-color="#00FF85"/>
</linearGradient>
<linearGradient id="paint4_linear_89_2173" x1="-52.7024" y1="100.089" x2="40.8324" y2="100.029" gradientUnits="userSpaceOnUse">
<stop stop-color="#CB47A0"/>
<stop offset="0.494792" stop-color="#6947CB"/>
<stop offset="1" stop-color="#00FF85"/>
</linearGradient>
<clipPath id="clip0_89_2173">
<rect width="184" height="84.9586" fill="white" transform="translate(84.959 -8) rotate(90)"/>
</clipPath>
</defs>
</svg>
