<svg width="80" height="79" viewBox="0 0 80 79" fill="none" xmlns="http://www.w3.org/2000/svg">
<rect x="0.483997" y="0.483997" width="71.032" height="69.032" rx="11.516" stroke="#4555FF" stroke-width="0.967994" stroke-dasharray="3.87 3.87"/>
<rect x="8" y="8" width="72" height="71" rx="12" fill="#D015FF"/>
<path d="M38.0674 59C37.9658 59 37.8633 58.9736 37.7705 58.919C37.521 58.7721 37.4162 58.4652 37.5237 58.1964L40.9601 49.6054H38.5494C38.3528 49.6054 38.1694 49.5068 38.0609 49.3429C37.9523 49.1791 37.9331 48.9717 38.0099 48.7907L40.9409 41.8749H36.833C36.6363 41.8749 36.4526 41.7761 36.3441 41.6119C36.2356 41.4477 36.2169 41.24 36.2941 41.059L41.2866 29.356C41.3787 29.1401 41.5908 29 41.8256 29H51.1665C51.3876 29 51.5899 29.1245 51.6896 29.3219C51.7892 29.5192 51.7693 29.7559 51.638 29.9338L47.4954 35.5494H51.1665C51.3871 35.5494 51.589 35.6734 51.689 35.8701C51.7889 36.0667 51.7698 36.3029 51.6397 36.481L46.2002 43.9278H49.3949C49.6211 43.9278 49.8271 44.058 49.9242 44.2623C50.0213 44.4666 49.992 44.7085 49.8492 44.8838L38.5219 58.7842C38.4072 58.9251 38.2386 59 38.0674 59ZM39.434 48.4335H41.8255C42.0199 48.4335 42.2017 48.5299 42.3107 48.691C42.4197 48.852 42.4417 49.0565 42.3696 49.2371L40.0359 55.0712L48.1617 45.0996H45.0466C44.826 45.0996 44.6241 44.9756 44.5242 44.7789C44.4243 44.5823 44.4434 44.3461 44.5735 44.168L50.0129 36.7213H46.335C46.1139 36.7213 45.9116 36.5968 45.8119 36.3994C45.7123 36.2021 45.7323 35.9654 45.8635 35.7874L50.0061 30.1719H42.2126L37.72 40.703H41.8255C42.022 40.703 42.2055 40.8016 42.314 40.9654C42.4226 41.1293 42.4417 41.3366 42.365 41.5176L39.434 48.4335Z" fill="white"/>
</svg>
