<svg width="40" height="41" viewBox="0 0 40 41" fill="none" xmlns="http://www.w3.org/2000/svg">
<g clip-path="url(#clip0_105_3594)">
<path d="M20 40.1553C31.0457 40.1553 40 31.201 40 20.1553C40 9.10958 31.0457 0.155273 20 0.155273C8.9543 0.155273 0 9.10958 0 20.1553C0 31.201 8.9543 40.1553 20 40.1553Z" fill="#D015FF"/>
<path fill-rule="evenodd" clip-rule="evenodd" d="M19.9974 32.9543C19.9418 32.9543 19.8864 32.9389 19.8374 32.9081L13.4289 28.8716L8.50892 31.3786C8.27927 31.4957 8.01616 31.2826 8.08277 31.0336L11.0811 19.8434C11.1164 19.7121 11.235 19.6211 11.3708 19.6211H13.7945C15.7986 22.1544 17.5193 24.8476 19.335 27.527C19.6521 27.9949 20.3424 27.9949 20.6595 27.5269C22.4753 24.8474 24.196 22.1546 26.2001 19.6211H28.6235C28.7591 19.6211 28.8782 19.7123 28.9132 19.8434L31.9259 31.1116C31.9259 31.3415 31.6817 31.4785 31.4857 31.3789L26.5657 28.8719L20.1572 32.9084C20.1083 32.939 20.0528 32.9543 19.9973 32.9543H19.9974Z" fill="#FEFEFE"/>
<path fill-rule="evenodd" clip-rule="evenodd" d="M19.9963 27.3784C19.8967 27.3784 19.8038 27.3291 19.7479 27.2466L14.9026 20.0962C13.4222 18.6872 12.6074 16.7879 12.6074 14.7443C12.6074 10.6702 15.922 7.35547 19.9963 7.35547C24.0708 7.35547 27.3853 10.6702 27.3853 14.7443C27.3853 16.7882 26.5707 18.6874 25.09 20.0962L20.2445 27.2466C20.1887 27.3292 20.0957 27.3786 19.9961 27.3786L19.9963 27.3784ZM19.9963 19.2046C17.4193 19.2046 15.3227 17.1079 15.3227 14.531C15.3227 11.954 17.4194 9.85762 19.9963 9.85762C22.5733 9.85762 24.67 11.954 24.67 14.5312C24.67 17.1083 22.5733 19.2046 19.9963 19.2046Z" fill="#FEFEFE"/>
<path fill-rule="evenodd" clip-rule="evenodd" d="M19.9974 10.457C17.7513 10.457 15.9238 12.2845 15.9238 14.5306C15.9238 16.7767 17.7513 18.6042 19.9974 18.6042C22.2435 18.6042 24.0709 16.7767 24.0709 14.5306C24.0709 12.2843 22.2435 10.457 19.9974 10.457ZM18.6472 14.7286C20.1625 14.7286 20.1622 17.0333 18.6472 17.0333C17.1325 17.0333 17.1316 14.7286 18.6472 14.7286ZM21.9127 16.8704L17.6577 12.6151C17.3782 12.3359 17.8027 11.9114 18.0819 12.1909L22.3371 16.4462C22.62 16.729 22.1889 17.1457 21.9127 16.8704ZM21.3475 14.3327C19.8318 14.3327 19.8325 12.028 21.3475 12.028C22.8621 12.028 22.863 14.3327 21.3475 14.3327Z" fill="#FEFEFE"/>
<path fill-rule="evenodd" clip-rule="evenodd" d="M18.6465 15.3291C18.1578 15.3291 17.908 15.9243 18.2559 16.2722C18.7609 16.7775 19.558 16.0122 19.0371 15.491C18.9327 15.3866 18.7941 15.3291 18.6465 15.3291Z" fill="#FEFEFE"/>
<path fill-rule="evenodd" clip-rule="evenodd" d="M21.3476 12.6279C20.8589 12.6279 20.6093 13.2231 20.957 13.571C21.4617 14.076 22.2591 13.3107 21.738 12.7898C21.6336 12.6854 21.4952 12.6279 21.3477 12.6279H21.3476Z" fill="#FEFEFE"/>
</g>
<defs>
<clipPath id="clip0_105_3594">
<rect width="40" height="40" fill="white" transform="translate(0 0.155273)"/>
</clipPath>
</defs>
</svg>
