<svg width="40" height="40" viewBox="0 0 40 40" fill="none" xmlns="http://www.w3.org/2000/svg">
<g clip-path="url(#clip0_87_1178)">
<path d="M40 20C40 8.9543 31.0457 0 20 0C8.9543 0 0 8.9543 0 20C0 31.0457 8.9543 40 20 40C31.0457 40 40 31.0457 40 20Z" fill="#D015FF"/>
<path d="M14.8328 20L7.22422 27.6078C7.00234 27.2055 6.875 26.743 6.875 26.25V13.75C6.875 13.257 7.00234 12.7945 7.22422 12.3922L14.8328 20ZM21.9891 22.0734L26.4477 17.6148C25.457 16.625 24.8438 15.2578 24.8438 13.75C24.8438 12.7219 25.1289 11.7602 25.6242 10.9375H9.6875C8.91094 10.9375 8.20781 11.2523 7.69844 11.7609L18.0109 22.0734C19.1094 23.1719 20.8906 23.1719 21.9891 22.0734ZM22.5414 22.6266C21.8625 23.3047 20.9602 23.6789 20 23.6789C19.0398 23.6789 18.1375 23.3047 17.4586 22.6266L15.3852 20.5523L7.69844 28.2391C8.20781 28.7477 8.91094 29.0625 9.6875 29.0625H30.3125C31.0891 29.0625 31.7922 28.7477 32.3016 28.2391L24.6148 20.5523L22.5414 22.6266ZM27.0391 18.1281L25.1672 20L32.7758 27.6078C32.9977 27.2055 33.125 26.743 33.125 26.25V18.4383C32.3023 18.9336 31.3406 19.2188 30.3125 19.2188C29.0859 19.2188 27.9523 18.8125 27.0391 18.1281ZM35 13.75C35 16.3391 32.9016 18.4375 30.3125 18.4375C27.7234 18.4375 25.625 16.3391 25.625 13.75C25.625 11.1609 27.7234 9.0625 30.3125 9.0625C32.9016 9.0625 35 11.1609 35 13.75ZM31.6828 14.0266C31.7563 13.9523 31.7969 13.8539 31.7969 13.75C31.7969 13.6461 31.7563 13.5477 31.6828 13.4734L30.2078 11.9992C30.1344 11.9258 30.0359 11.8852 29.932 11.8852C29.8281 11.8852 29.7297 11.9258 29.6555 11.9992C29.582 12.0734 29.5414 12.1711 29.5414 12.2758C29.5414 12.3805 29.582 12.4781 29.6555 12.5516L30.4633 13.3594H27.6562C27.4406 13.3594 27.2656 13.5344 27.2656 13.75C27.2656 13.9656 27.4406 14.1406 27.6562 14.1406H30.4633L29.6555 14.9484C29.582 15.0219 29.5414 15.1203 29.5414 15.2242C29.5414 15.3281 29.582 15.4266 29.6555 15.5008C29.7297 15.5742 29.8273 15.6148 29.932 15.6148C30.0367 15.6148 30.1344 15.5742 30.2078 15.5008L31.6828 14.0266ZM33.3594 11.2609C33.3594 11.0453 33.1844 10.8703 32.9688 10.8703H31.5445C31.3289 10.8703 31.1539 11.0453 31.1539 11.2609C31.1539 11.4766 31.3289 11.6516 31.5445 11.6516H32.5781V15.8484H31.5445C31.3289 15.8484 31.1539 16.0242 31.1539 16.2391C31.1539 16.4539 31.3289 16.6297 31.5445 16.6297H32.9688C33.1844 16.6297 33.3594 16.4547 33.3594 16.2391V11.2609Z" fill="white"/>
</g>
<defs>
<clipPath id="clip0_87_1178">
<rect width="40" height="40" fill="white"/>
</clipPath>
</defs>
</svg>
