<svg width="24" height="24" viewBox="0 0 24 24" fill="none" xmlns="http://www.w3.org/2000/svg">
<path d="M15.4998 16.4C13.2998 19.2 9.7998 22 6.7998 24C12.1998 23.9 16.6998 22.3 20.6998 19H20.4998C18.3998 18.8 16.7998 17.9 15.4998 16.4Z" fill="white"/>
<path d="M18.5 5H14.7L16 3.7C16.3 3.9 16.6 4 17 4C18.1 4 19 3.1 19 2C19 0.9 18.1 0 17 0C15.9 0 15 0.9 15 2C15 2.4 15.1 2.7 15.3 3L11.7 6.6C11.5 6.8 11.2 6.8 11 6.6C10.8 6.4 10.8 6.1 11 5.9L11.9 5H5.5C4.1 5 3 6.1 3 7.5V21.5C3 22.7 3.8 23.7 5 23.9C8.4 21.9 12.8 18.6 15.1 15.2C15.2 15.1 15.3 15 15.5 15C15.7 15 15.8 15.1 15.9 15.2C17.1 16.9 18.5 17.8 20.5 18H20.9V7.5C21 6.1 19.9 5 18.5 5ZM12.5 16H7.5C7.2 16 7 15.8 7 15.5C7 15.2 7.2 15 7.5 15H12.5C12.8 15 13 15.2 13 15.5C13 15.8 12.8 16 12.5 16ZM16.5 13H7.5C7.2 13 7 12.8 7 12.5C7 12.2 7.2 12 7.5 12H16.5C16.8 12 17 12.2 17 12.5C17 12.8 16.8 13 16.5 13ZM16.5 10H7.5C7.2 10 7 9.8 7 9.5C7 9.2 7.2 9 7.5 9H16.5C16.8 9 17 9.2 17 9.5C17 9.8 16.8 10 16.5 10Z" fill="white"/>
</svg>
