<svg width="72" height="71" viewBox="0 0 72 71" fill="none" xmlns="http://www.w3.org/2000/svg">
<rect width="72" height="71" rx="12" fill="#D015FF"/>
<mask id="mask0_94_2735" style="mask-type:luminance" maskUnits="userSpaceOnUse" x="21" y="21" width="30" height="30">
<path d="M21 21H51V51H21V21Z" fill="white"/>
</mask>
<g mask="url(#mask0_94_2735)">
<path d="M46.5471 20.9998H42.5166L47.426 25.9092V21.8787C47.426 21.3933 47.0325 20.9998 46.5471 20.9998Z" fill="white"/>
<path d="M42.1523 23.1219V26.2734H45.3039L42.1523 23.1219Z" fill="white"/>
<path d="M43.8857 34.0361C43.8857 34.5215 43.4922 34.915 43.0068 34.915H35.2993C34.8139 34.915 34.4204 34.5215 34.4204 34.0361C34.4204 33.5507 34.8139 33.1572 35.2993 33.1572H43.0068C43.4922 33.1572 43.8857 33.5507 43.8857 34.0361ZM43.0068 40.2471H35.2993C34.8139 40.2471 34.4204 39.8535 34.4204 39.3681C34.4204 38.8828 34.8139 38.4892 35.2993 38.4892H43.0068C43.4922 38.4892 43.8857 38.8828 43.8857 39.3681C43.8857 39.8535 43.4922 40.2471 43.0068 40.2471ZM43.0068 45.6377H35.2993C34.8139 45.6377 34.4204 45.2442 34.4204 44.7588C34.4204 44.2734 34.8139 43.8799 35.2993 43.8799H43.0068C43.4922 43.8799 43.8857 44.2734 43.8857 44.7588C43.8857 45.2442 43.4922 45.6377 43.0068 45.6377ZM31.8381 34.5955L30.3138 36.4423C30.1581 36.6308 29.931 36.746 29.687 36.7602C29.6699 36.7612 29.6529 36.7617 29.6359 36.7617C29.4098 36.7617 29.1917 36.6745 29.0276 36.5171L28.3629 35.8797C28.0126 35.5437 28.0009 34.9873 28.3369 34.637C28.6669 34.293 29.2095 34.2756 29.5607 34.5933L30.4825 33.4765C30.7914 33.1022 31.3454 33.0492 31.7198 33.3582C32.0941 33.6672 32.1471 34.2212 31.8381 34.5955ZM31.8381 39.9275L30.3138 41.7743C30.1581 41.9629 29.931 42.078 29.687 42.0922C29.6699 42.0932 29.6529 42.0938 29.6359 42.0938C29.4098 42.0938 29.1917 42.0065 29.0276 41.8491L28.3629 41.2117C28.0126 40.8757 28.001 40.3193 28.3369 39.969C28.6671 39.625 29.2095 39.6076 29.5607 39.9254L30.4825 38.8086C30.7914 38.4342 31.3454 38.3813 31.7198 38.6902C32.0941 38.9992 32.1471 39.5532 31.8381 39.9275ZM31.8381 45.3182L30.3138 47.1649C30.1581 47.3535 29.931 47.4687 29.687 47.4829C29.6699 47.4838 29.6529 47.4844 29.6359 47.4844C29.4098 47.4844 29.1917 47.3971 29.0276 47.2397L28.3629 46.6023C28.0126 46.2663 28.001 45.7099 28.3369 45.3596C28.6671 45.0155 29.2095 44.9982 29.5607 45.316L30.4825 44.1992C30.7914 43.8248 31.3454 43.7719 31.7198 44.0808C32.0941 44.3899 32.1471 44.9438 31.8381 45.3182ZM28.9712 28.0314H37.7602C38.2455 28.0314 38.6391 28.4248 38.6391 28.9103C38.6391 29.3957 38.2455 29.7892 37.7602 29.7892H28.9712C28.4858 29.7892 28.0922 29.3957 28.0922 28.9103C28.0922 28.4248 28.4858 28.0314 28.9712 28.0314ZM28.9712 24.5156H37.7602C38.2455 24.5156 38.6391 24.9091 38.6391 25.3945C38.6391 25.8799 38.2455 26.2734 37.7602 26.2734H28.9712C28.4858 26.2734 28.0922 25.8799 28.0922 25.3945C28.0922 24.9091 28.4858 24.5156 28.9712 24.5156ZM40.3945 27.1523V21H25.4531C24.9677 21 24.5742 21.3935 24.5742 21.8789V50.1211C24.5742 50.6065 24.9677 51 25.4531 51H46.5469C47.0323 51 47.4258 50.6065 47.4258 50.1211V28.0313H41.2734C40.788 28.0313 40.3945 27.6377 40.3945 27.1523Z" fill="white"/>
</g>
</svg>
