<svg width="80" height="80" viewBox="0 0 80 80" fill="none" xmlns="http://www.w3.org/2000/svg">
<rect x="0.483997" y="0.527942" width="71.032" height="69.032" rx="11.516" stroke="#7CFEFD" stroke-width="0.967994" stroke-dasharray="3.87 3.87"/>
<rect x="8" y="8.04395" width="72" height="71" rx="12" fill="#D015FF"/>
<path d="M39.3757 37.2717H37.4642C37.0042 37.2717 36.6299 36.897 36.6299 36.4365C36.6299 35.9743 37.0036 35.6012 37.4641 35.6012C37.4684 35.6012 37.4726 35.6013 37.4769 35.6013H39.3074C39.6361 35.6046 39.9612 35.7522 40.1996 36.0068C40.5328 36.3625 41.0911 36.3806 41.4468 36.0475C41.8024 35.7143 41.8206 35.156 41.4875 34.8003C40.9194 34.1939 40.1286 33.8426 39.3177 33.8366C39.3155 33.8366 39.3133 33.8366 39.3111 33.8366H39.3024V33.0525C39.3024 32.5652 38.9073 32.1702 38.42 32.1702C37.9327 32.1702 37.5377 32.5652 37.5377 33.0525V33.8365C35.9362 33.8365 34.8652 35.0652 34.8652 36.4364C34.8652 37.87 36.0311 39.0364 37.4642 39.0364H39.3758C39.8358 39.0364 40.2102 39.411 40.2102 39.8716C40.2102 40.3337 39.8364 40.7068 39.376 40.7068C39.3717 40.7068 39.3674 40.7067 39.3632 40.7067H37.3659C37.1338 40.7044 36.8872 40.6206 36.6714 40.4708C36.2711 40.1927 35.7213 40.292 35.4434 40.6924C35.1655 41.0927 35.2647 41.6425 35.6651 41.9203C36.3006 42.3616 36.873 42.4714 37.5377 42.4714V43.2554C37.5377 43.7427 37.9327 44.1377 38.42 44.1377C38.9074 44.1377 39.3024 43.7427 39.3024 43.2554V42.4714C40.9154 42.4714 41.9748 41.2321 41.9748 39.8716C41.9748 38.438 40.8089 37.2717 39.3757 37.2717Z" fill="white"/>
<path d="M47.6248 40.1195C48.8744 34.2349 44.3665 28.7395 38.4202 28.7395C33.2314 28.7395 29.01 32.963 29.01 38.1543C29.01 44.1039 34.5072 48.6214 40.3965 47.3608C39.1477 53.2245 43.6363 58.7395 49.6 58.7395C54.7887 58.7395 59.01 54.5161 59.01 49.3248C59.01 43.3768 53.5133 38.856 47.6248 40.1195ZM30.7747 38.1543C30.7747 33.936 34.2044 30.5042 38.4202 30.5042C43.7276 30.5042 47.4391 35.8213 45.5932 40.8076C43.6152 41.7427 42.0134 43.3475 41.0813 45.3279C36.0997 47.1822 30.7747 43.4731 30.7747 38.1543ZM49.6 56.9748C45.3843 56.9748 41.9546 53.5431 41.9546 49.3248C41.9546 45.1066 45.3843 41.6748 49.6 41.6748C53.8156 41.6748 57.2453 45.1066 57.2453 49.3248C57.2453 53.5431 53.8156 56.9748 49.6 56.9748Z" fill="white"/>
<path d="M52.6108 52.4188C51.379 52.0279 50.0918 51.9036 48.8231 52.0476C49.0019 51.4991 49.1279 50.9361 49.2004 50.3648H50.2578C50.7451 50.3648 51.1401 49.9697 51.1401 49.4824C51.1401 48.995 50.7451 48.6 50.2578 48.6H49.2532C49.235 48.321 49.2237 48.2414 49.1491 47.5598C49.0253 46.4303 50.4274 45.8262 51.1697 46.6634C51.4929 47.0279 52.0506 47.0616 52.4153 46.7382C52.7799 46.4149 52.8135 45.8572 52.4901 45.4926C50.6175 43.3803 47.0832 44.9118 47.3949 47.7522C47.4745 48.4784 47.4686 48.4133 47.4836 48.6H46.856C46.3687 48.6 45.9736 48.995 45.9736 49.4823C45.9736 49.9696 46.3687 50.3647 46.856 50.3647H47.4175C47.2818 51.2235 46.9954 52.0556 46.5639 52.8302C46.1826 53.5143 46.8197 54.3218 47.5737 54.1091C49.0678 53.6885 50.461 53.5877 52.0769 54.1007C52.5406 54.248 53.0373 53.9918 53.1849 53.5268C53.3322 53.0624 53.0752 52.5663 52.6108 52.4188Z" fill="white"/>
<path d="M50.9217 31.5145C52.6508 31.5145 54.4883 32.8201 54.4883 35.2396V36.0705L53.6937 35.2754C53.3492 34.9307 52.7906 34.9307 52.4459 35.2751C52.1012 35.6195 52.1011 36.1782 52.4456 36.5229L54.7466 38.8253C55.0879 39.167 55.6483 39.172 55.9947 38.8253L58.2958 36.5229C58.6403 36.1782 58.6401 35.6196 58.2955 35.2751C57.9508 34.9305 57.3921 34.9307 57.0477 35.2754L56.2529 36.0705V35.2396C56.2529 32.0296 53.8142 29.7498 50.9216 29.7498C50.4344 29.7498 50.0393 30.1448 50.0393 30.6321C50.0393 31.1194 50.4344 31.5145 50.9217 31.5145Z" fill="white"/>
<path d="M37.0987 55.9648C35.3698 55.9648 33.5322 54.6593 33.5322 52.2397V51.4087L34.3269 52.2039C34.6713 52.5485 35.2299 52.5488 35.5747 52.2043C35.9194 51.8598 35.9195 51.3011 35.575 50.9564L33.2739 48.654C32.9326 48.312 32.371 48.308 32.0258 48.654L29.7246 50.9565C29.3801 51.3011 29.3802 51.8598 29.7249 52.2043C30.0695 52.5487 30.6282 52.5487 30.9727 52.2039L31.7675 51.4088V52.2397C31.7675 55.4497 34.2061 57.7296 37.0987 57.7296C37.5861 57.7296 37.9811 57.3345 37.9811 56.8472C37.9811 56.3599 37.5861 55.9648 37.0987 55.9648Z" fill="white"/>
</svg>
