<svg width="40" height="41" viewBox="0 0 40 41" fill="none" xmlns="http://www.w3.org/2000/svg">
<g clip-path="url(#clip0_105_3590)">
<rect y="0.155273" width="40" height="40" rx="20" fill="white"/>
<path fill-rule="evenodd" clip-rule="evenodd" d="M20 0.157227C31.0451 0.157227 40 9.10934 40 20.1544C40 31.1995 31.0454 40.1549 20 40.1549C8.95461 40.1549 0 31.1994 0 20.1544C0 9.10941 8.95422 0.157227 20 0.157227ZM24.8923 26.8291L24.6791 26.6566L24.4794 26.8445C24.1834 27.1229 23.8873 27.4015 23.5874 27.6757C23.4763 27.7774 23.3383 27.845 23.1899 27.8707C23.0415 27.8963 22.8888 27.8788 22.75 27.8204C21.7221 27.3846 20.7262 26.7589 19.8248 26.104C18.7225 25.2968 17.6851 24.4045 16.722 23.4355C15.752 22.4725 14.8591 21.435 14.0513 20.3325C13.3965 19.4312 12.7708 18.4353 12.3355 17.4074C12.2774 17.2688 12.2602 17.1165 12.2858 16.9684C12.3113 16.8203 12.3787 16.6826 12.4798 16.5714C12.7553 16.2707 13.0355 15.9739 13.3141 15.6761L13.5011 15.4762L13.3287 15.2636C12.1504 13.8104 11.0256 12.3109 9.97125 10.7652L9.80633 10.5234L9.55352 10.6708C9.34149 10.7944 9.1307 10.9225 8.92649 11.0587C8.77192 11.1573 8.62528 11.2678 8.48789 11.3892L8.45187 11.4226L8.42781 11.4654C7.22945 13.5982 7.67648 16.2257 8.52227 18.3962C9.65367 21.2995 11.7143 24.0603 13.9051 26.252C16.0959 28.4437 18.8566 30.5042 21.7599 31.6348C23.9303 32.4801 26.5598 32.9276 28.6916 31.7282L28.7341 31.7043L28.7673 31.6686C28.8888 31.5314 28.9994 31.3848 29.0979 31.2303C29.2342 31.0258 29.3625 30.8148 29.4863 30.6026L29.6338 30.3499L29.3922 30.1849C27.8473 29.1293 26.3471 28.0062 24.8927 26.8293L24.8923 26.8291ZM12.4235 9.43137L12.3209 9.42152L12.2888 9.42496C12.0623 9.44973 11.781 9.56207 11.5705 9.64895L11.2105 9.79738L11.4318 10.1177C12.361 11.4633 13.3436 12.7728 14.3662 14.0488L14.5917 14.33L14.8395 14.0682C15.0401 13.8562 15.2404 13.6436 15.4377 13.4286C15.5133 13.3489 15.558 13.2448 15.5637 13.1351C15.5695 13.0253 15.5358 12.9171 15.4689 12.83L13.0392 9.51059L12.9268 9.48379C12.7609 9.45225 12.5926 9.43463 12.4237 9.43113L12.4235 9.43137ZM26.7282 24.7204C26.5116 24.9157 26.2995 25.118 26.0888 25.3198L25.8304 25.5674L26.1094 25.7916C27.3838 26.8156 28.6942 27.7928 30.0407 28.7234L30.3599 28.9432L30.509 28.5855C30.597 28.3746 30.7082 28.0926 30.7316 27.8646L30.7343 27.8383L30.7277 27.7372C30.7235 27.5644 30.7043 27.3924 30.6705 27.2229L30.6425 27.114L27.3252 24.6871C27.238 24.6205 27.13 24.5873 27.0205 24.5934C26.911 24.5995 26.8074 24.6446 26.7282 24.7204ZM27.7443 14.8322L28.3734 12.4868H25.9444L25.3153 14.8322H27.7443ZM31.5197 12.4868C31.7281 12.4868 31.9279 12.404 32.0753 12.2566C32.2226 12.1093 32.3054 11.9094 32.3054 11.7011C32.3054 11.4927 32.2226 11.2928 32.0753 11.1455C31.9279 10.9981 31.7281 10.9154 31.5197 10.9154H30.4205L30.7049 9.85395C30.7319 9.7542 30.7389 9.65011 30.7256 9.54765C30.7123 9.44518 30.6789 9.34635 30.6273 9.25681C30.5757 9.16727 30.507 9.08879 30.4251 9.02586C30.3431 8.96292 30.2495 8.91677 30.1497 8.89006C30.0499 8.86334 29.9458 8.85658 29.8434 8.87015C29.741 8.88373 29.6422 8.91738 29.5528 8.96918C29.4634 9.02098 29.3851 9.08991 29.3224 9.17202C29.2596 9.25414 29.2137 9.34781 29.1873 9.44769L28.7942 10.9151H26.3645L26.921 8.8398C26.9477 8.74015 26.9544 8.63623 26.9409 8.53397C26.9274 8.4317 26.8939 8.3331 26.8423 8.2438C26.7906 8.15449 26.7219 8.07622 26.6401 8.01347C26.5582 7.95071 26.4648 7.9047 26.3651 7.87805C26.2655 7.8514 26.1615 7.84464 26.0593 7.85815C25.957 7.87167 25.8584 7.90519 25.7691 7.95681C25.6798 8.00843 25.6015 8.07713 25.5388 8.159C25.476 8.24087 25.43 8.33429 25.4034 8.43395L24.7383 10.9151H22.1688C21.9604 10.9151 21.7605 10.9979 21.6132 11.1452C21.4658 11.2926 21.383 11.4924 21.383 11.7008C21.383 11.9092 21.4658 12.109 21.6132 12.2564C21.7605 12.4037 21.9604 12.4865 22.1688 12.4865H24.3179L23.6888 14.832H22.169C21.9606 14.832 21.7608 14.9148 21.6134 15.0621C21.4661 15.2095 21.3833 15.4093 21.3833 15.6177C21.3833 15.8261 21.4661 16.0259 21.6134 16.1733C21.7608 16.3206 21.9606 16.4034 22.169 16.4034H23.2679L22.9835 17.4648C22.9568 17.5645 22.9501 17.6684 22.9635 17.7706C22.977 17.8729 23.0105 17.9715 23.0621 18.0608C23.1137 18.1502 23.1824 18.2285 23.2643 18.2912C23.3461 18.354 23.4395 18.4 23.5392 18.4267C23.6388 18.4534 23.7427 18.4602 23.845 18.4467C23.9473 18.4332 24.0459 18.3997 24.1352 18.3481C24.2245 18.2965 24.3028 18.2278 24.3656 18.146C24.4284 18.0641 24.4744 17.9707 24.5011 17.8711L24.8942 16.4036H27.3239L26.7674 18.4789C26.7407 18.5785 26.734 18.6824 26.7475 18.7847C26.7609 18.887 26.7944 18.9856 26.846 19.0749C26.9503 19.2553 27.1219 19.3869 27.3231 19.4408C27.5244 19.4947 27.7388 19.4664 27.9192 19.3622C28.0085 19.3106 28.0868 19.2419 28.1496 19.16C28.2124 19.0782 28.2584 18.9848 28.2851 18.8851L28.9502 16.4039H31.5196C31.728 16.4039 31.9278 16.3212 32.0752 16.1738C32.2225 16.0265 32.3053 15.8266 32.3053 15.6182C32.3053 15.4099 32.2225 15.21 32.0752 15.0627C31.9278 14.9153 31.728 14.8325 31.5196 14.8325H29.3703L29.9993 12.4871L31.5197 12.4868Z" fill="#D015FF"/>
</g>
<defs>
<clipPath id="clip0_105_3590">
<rect y="0.155273" width="40" height="40" rx="20" fill="white"/>
</clipPath>
</defs>
</svg>
