<svg width="40" height="40" viewBox="0 0 40 40" fill="none" xmlns="http://www.w3.org/2000/svg">
<g clip-path="url(#clip0_87_1185)">
<rect x="6" y="6" width="27" height="29" fill="white"/>
<path d="M20 0C9.01489 0 0 9.01489 0 20C0 23.6255 0.977478 27.1548 2.83112 30.2426L0 40L9.75739 37.1689C12.8452 39.0225 16.3745 40 20 40C30.9851 40 40 30.9851 40 20C40 9.01489 30.9851 0 20 0ZM32.5043 28.4506L31.5738 29.3811C30.2573 30.6976 27.2296 30.5933 25.2841 30.2176C18.8153 28.9682 11.2735 21.658 9.81903 15.3275C9.09882 12.1915 9.49646 9.46503 10.5365 8.42468L11.467 7.4942C11.9806 6.9809 12.8149 6.98151 13.3279 7.4942L17.0505 11.217C17.2989 11.4655 17.435 11.7947 17.435 12.1472C17.435 12.4997 17.2989 12.8293 17.0505 13.0768L16.1203 14.0082C15.0949 15.036 15.0949 16.7056 16.1203 17.731L22.2675 23.7973C23.2959 24.8257 24.9603 24.827 25.9903 23.7973L26.9208 22.8671C27.4011 22.384 28.2983 22.3825 28.7827 22.8671L32.5043 26.5887C33.0096 27.092 33.0289 27.9257 32.5043 28.4506Z" fill="#D015FF"/>
</g>
<defs>
<clipPath id="clip0_87_1185">
<rect width="40" height="40" fill="white"/>
</clipPath>
</defs>
</svg>
