<svg width="40" height="40" viewBox="0 0 40 40" fill="none" xmlns="http://www.w3.org/2000/svg">
<g clip-path="url(#clip0_87_1174)">
<rect width="40" height="40" rx="20" fill="white"/>
<path fill-rule="evenodd" clip-rule="evenodd" d="M20 0.00238037C31.0451 0.00238037 40 8.95449 40 19.9996C40 31.0446 31.0454 40 20 40C8.95461 40 0 31.0446 0 19.9996C0 8.95457 8.95422 0.00238037 20 0.00238037ZM24.8923 26.6743L24.6791 26.5018L24.4794 26.6896C24.1834 26.9681 23.8873 27.2467 23.5874 27.5209C23.4763 27.6225 23.3383 27.6902 23.1899 27.7158C23.0415 27.7415 22.8888 27.724 22.75 27.6655C21.7221 27.2297 20.7262 26.604 19.8248 25.9492C18.7225 25.1419 17.6851 24.2497 16.722 23.2807C15.752 22.3177 14.8591 21.2802 14.0513 20.1776C13.3965 19.2764 12.7708 18.2804 12.3355 17.2525C12.2774 17.1139 12.2602 16.9616 12.2858 16.8135C12.3113 16.6654 12.3787 16.5277 12.4798 16.4166C12.7553 16.1159 13.0355 15.819 13.3141 15.5212L13.5011 15.3214L13.3287 15.1087C12.1504 13.6556 11.0256 12.1561 9.97125 10.6103L9.80633 10.3686L9.55352 10.516C9.34149 10.6396 9.1307 10.7677 8.92649 10.9039C8.77192 11.0025 8.62528 11.1129 8.48789 11.2343L8.45187 11.2678L8.42781 11.3106C7.22945 13.4434 7.67648 16.0709 8.52227 18.2414C9.65367 21.1446 11.7143 23.9054 13.9051 26.0971C16.0959 28.2889 18.8566 30.3493 21.7599 31.48C23.9303 32.3253 26.5598 32.7728 28.6916 31.5733L28.7341 31.5494L28.7673 31.5137C28.8888 31.3765 28.9994 31.23 29.0979 31.0754C29.2342 30.871 29.3625 30.66 29.4863 30.4478L29.6338 30.195L29.3922 30.03C27.8473 28.9745 26.3471 27.8514 24.8927 26.6745L24.8923 26.6743ZM12.4235 9.27652L12.3209 9.26668L12.2888 9.27011C12.0623 9.29488 11.781 9.40722 11.5705 9.4941L11.2105 9.64254L11.4318 9.96285C12.361 11.3085 13.3436 12.6179 14.3662 13.8939L14.5917 14.1752L14.8395 13.9133C15.0401 13.7014 15.2404 13.4888 15.4377 13.2738C15.5133 13.1941 15.558 13.09 15.5637 12.9802C15.5695 12.8705 15.5358 12.7623 15.4689 12.6751L13.0392 9.35574L12.9268 9.32894C12.7609 9.2974 12.5926 9.27979 12.4237 9.27629L12.4235 9.27652ZM26.7282 24.5656C26.5116 24.7609 26.2995 24.9632 26.0888 25.165L25.8304 25.4125L26.1094 25.6368C27.3838 26.6607 28.6942 27.638 30.0407 28.5686L30.3599 28.7884L30.509 28.4307C30.597 28.2197 30.7082 27.9378 30.7316 27.7097L30.7343 27.6835L30.7277 27.5824C30.7235 27.4096 30.7043 27.2375 30.6705 27.068L30.6425 26.9592L27.3252 24.5322C27.238 24.4656 27.13 24.4324 27.0205 24.4385C26.911 24.4446 26.8074 24.4897 26.7282 24.5656ZM27.7443 14.6774L28.3734 12.3319H25.9444L25.3153 14.6774H27.7443ZM31.5197 12.3319C31.7281 12.3319 31.9279 12.2491 32.0753 12.1018C32.2226 11.9544 32.3054 11.7546 32.3054 11.5462C32.3054 11.3378 32.2226 11.138 32.0753 10.9906C31.9279 10.8433 31.7281 10.7605 31.5197 10.7605H30.4205L30.7049 9.6991C30.7319 9.59935 30.7389 9.49527 30.7256 9.3928C30.7123 9.29033 30.6789 9.1915 30.6273 9.10196C30.5757 9.01243 30.507 8.93394 30.4251 8.87101C30.3431 8.80808 30.2495 8.76193 30.1497 8.73521C30.0499 8.70849 29.9458 8.70173 29.8434 8.71531C29.741 8.72888 29.6422 8.76254 29.5528 8.81434C29.4634 8.86614 29.3851 8.93507 29.3224 9.01718C29.2596 9.09929 29.2137 9.19297 29.1873 9.29285L28.7942 10.7603H26.3645L26.921 8.68496C26.9477 8.58531 26.9544 8.48138 26.9409 8.37912C26.9274 8.27686 26.8939 8.17826 26.8423 8.08895C26.7906 7.99964 26.7219 7.92138 26.6401 7.85862C26.5582 7.79587 26.4648 7.74985 26.3651 7.7232C26.2655 7.69655 26.1615 7.68979 26.0593 7.70331C25.957 7.71682 25.8584 7.75034 25.7691 7.80196C25.6798 7.85358 25.6015 7.92229 25.5388 8.00416C25.476 8.08602 25.43 8.17945 25.4034 8.2791L24.7383 10.7603H22.1688C21.9604 10.7603 21.7605 10.8431 21.6132 10.9904C21.4658 11.1377 21.383 11.3376 21.383 11.546C21.383 11.7544 21.4658 11.9542 21.6132 12.1016C21.7605 12.2489 21.9604 12.3317 22.1688 12.3317H24.3179L23.6888 14.6771H22.169C21.9606 14.6771 21.7608 14.7599 21.6134 14.9073C21.4661 15.0546 21.3833 15.2545 21.3833 15.4628C21.3833 15.6712 21.4661 15.8711 21.6134 16.0184C21.7608 16.1658 21.9606 16.2486 22.169 16.2486H23.2679L22.9835 17.31C22.9568 17.4096 22.9501 17.5135 22.9635 17.6158C22.977 17.7181 23.0105 17.8167 23.0621 17.906C23.1137 17.9953 23.1824 18.0736 23.2643 18.1364C23.3461 18.1992 23.4395 18.2452 23.5392 18.2719C23.6388 18.2985 23.7427 18.3053 23.845 18.2918C23.9473 18.2784 24.0459 18.2449 24.1352 18.1933C24.2245 18.1417 24.3028 18.073 24.3656 17.9911C24.4284 17.9093 24.4744 17.8159 24.5011 17.7162L24.8942 16.2488H27.3239L26.7674 18.324C26.7407 18.4237 26.734 18.5276 26.7475 18.6299C26.7609 18.7321 26.7944 18.8308 26.846 18.9201C26.9503 19.1005 27.1219 19.2321 27.3231 19.286C27.5244 19.3398 27.7388 19.3116 27.9192 19.2073C28.0085 19.1557 28.0868 19.0871 28.1496 19.0052C28.2124 18.9233 28.2584 18.8299 28.2851 18.7303L28.9502 16.2491H31.5196C31.728 16.2491 31.9278 16.1663 32.0752 16.019C32.2225 15.8716 32.3053 15.6718 32.3053 15.4634C32.3053 15.255 32.2225 15.0552 32.0752 14.9078C31.9278 14.7605 31.728 14.6777 31.5196 14.6777H29.3703L29.9993 12.3322L31.5197 12.3319Z" fill="#D015FF"/>
</g>
<defs>
<clipPath id="clip0_87_1174">
<rect width="40" height="40" rx="20" fill="white"/>
</clipPath>
</defs>
</svg>
