<svg width="72" height="71" viewBox="0 0 72 71" fill="none" xmlns="http://www.w3.org/2000/svg">
<rect width="72" height="71" rx="12" fill="#D015FF"/>
<g clip-path="url(#clip0_94_2669)">
<mask id="mask0_94_2669" style="mask-type:luminance" maskUnits="userSpaceOnUse" x="21" y="20" width="30" height="31">
<path d="M51 21H21V51H51V21Z" fill="white"/>
<path d="M36.0001 30.883C34.8499 30.883 33.9141 31.8188 33.9141 32.969C33.9141 33.6862 34.2766 34.3448 34.8837 34.7307L35.3893 35.0519L34.5953 39.1401H37.4049L36.611 35.0519L37.1165 34.7307C37.7237 34.3447 38.0862 33.6862 38.0862 32.969C38.0862 31.8188 37.1504 30.883 36.0001 30.883Z" fill="white"/>
<path d="M36.0003 23.1953C37.4217 23.1953 38.8532 23.2854 40.2628 23.4615L42.1881 21.5278C40.1523 21.1774 38.0777 20.9998 36.0003 20.9998C33.9228 20.9998 31.8483 21.1774 29.8125 21.5278L31.7378 23.4615C33.1473 23.2854 34.5789 23.1953 36.0003 23.1953Z" fill="white"/>
<path d="M45.8901 29.5995L47.9031 28.1652C46.8023 27.7042 45.8115 26.996 45.0159 26.0871C44.2008 25.1559 43.627 24.0528 43.3293 22.873L41.5986 24.6112C42.4275 26.6851 43.9568 28.4628 45.8901 29.5995Z" fill="white"/>
<path d="M30.4023 24.6113L28.6717 22.8731C28.3739 24.0528 27.8001 25.1559 26.985 26.0871C26.1894 26.9961 25.1986 27.7042 24.0977 28.1652L26.1108 29.5996C28.0441 28.4628 29.5734 26.6852 30.4023 24.6113Z" fill="white"/>
<path d="M39.4742 40.8979H32.5273L33.4461 36.1671V35.841C32.6689 35.1522 32.2041 34.1802 32.1612 33.1284C32.2489 31.086 33.9372 29.4513 36.0008 29.4513C38.0644 29.4513 39.7527 31.086 39.8404 33.1284C39.7975 34.1802 39.3326 35.1521 38.5555 35.841V36.1671L39.4742 40.8979ZM39.9378 25.1915C38.6353 25.0332 37.3134 24.9531 36.0008 24.9531C34.6882 24.9531 33.3663 25.0332 32.0637 25.1915C31.0874 27.6809 29.2534 29.8125 26.9307 31.1568V34.2203C26.9307 40.0318 30.5631 45.1799 36.0008 47.1235C41.4384 45.1799 45.0709 40.0318 45.0709 34.2203V31.1567C42.7483 29.8125 40.9141 27.6808 39.9378 25.1915Z" fill="white"/>
<path d="M46.8279 31.0897V34.2204C46.8279 40.6741 42.8559 46.403 36.8789 48.6729V51C44.0841 48.6413 49.0234 41.8983 49.0234 34.2204V29.5254L46.8279 31.0897Z" fill="white"/>
<path d="M25.172 34.2204V31.0897L22.9766 29.5255V34.2204C22.9766 41.8983 27.9159 48.6413 35.1211 51V48.6729C29.1441 46.403 25.172 40.6741 25.172 34.2204Z" fill="white"/>
</mask>
<g mask="url(#mask0_94_2669)">
<mask id="mask1_94_2669" style="mask-type:luminance" maskUnits="userSpaceOnUse" x="21" y="21" width="30" height="30">
<path d="M21 21H51V51H21V21Z" fill="white"/>
</mask>
<g mask="url(#mask1_94_2669)">
<path d="M36.0001 30.883C34.8499 30.883 33.9141 31.8188 33.9141 32.969C33.9141 33.6862 34.2766 34.3448 34.8837 34.7307L35.3893 35.0519L34.5953 39.1401H37.4049L36.611 35.0519L37.1165 34.7307C37.7237 34.3447 38.0862 33.6862 38.0862 32.969C38.0862 31.8188 37.1504 30.883 36.0001 30.883Z" fill="white"/>
<path d="M36.0003 23.1953C37.4217 23.1953 38.8532 23.2854 40.2628 23.4615L42.1881 21.5278C40.1523 21.1774 38.0777 20.9998 36.0003 20.9998C33.9228 20.9998 31.8483 21.1774 29.8125 21.5278L31.7378 23.4615C33.1473 23.2854 34.5789 23.1953 36.0003 23.1953Z" fill="white"/>
<path d="M45.8901 29.5995L47.9031 28.1652C46.8023 27.7042 45.8115 26.996 45.0159 26.0871C44.2008 25.1559 43.627 24.0528 43.3293 22.873L41.5986 24.6112C42.4275 26.6851 43.9568 28.4628 45.8901 29.5995Z" fill="white"/>
<path d="M30.4023 24.6113L28.6717 22.8731C28.3739 24.0528 27.8001 25.1559 26.985 26.0871C26.1894 26.9961 25.1986 27.7042 24.0977 28.1652L26.1108 29.5996C28.0441 28.4628 29.5734 26.6852 30.4023 24.6113Z" fill="white"/>
<path d="M39.4742 40.8979H32.5273L33.4461 36.1671V35.841C32.6689 35.1522 32.2041 34.1802 32.1612 33.1284C32.2489 31.086 33.9372 29.4513 36.0008 29.4513C38.0644 29.4513 39.7527 31.086 39.8404 33.1284C39.7975 34.1802 39.3326 35.1521 38.5555 35.841V36.1671L39.4742 40.8979ZM39.9378 25.1915C38.6353 25.0332 37.3134 24.9531 36.0008 24.9531C34.6882 24.9531 33.3663 25.0332 32.0637 25.1915C31.0874 27.6809 29.2534 29.8125 26.9307 31.1568V34.2203C26.9307 40.0318 30.5631 45.1799 36.0008 47.1235C41.4384 45.1799 45.0709 40.0318 45.0709 34.2203V31.1567C42.7483 29.8125 40.9141 27.6808 39.9378 25.1915Z" fill="white"/>
<path d="M46.8279 31.0897V34.2204C46.8279 40.6741 42.8559 46.403 36.8789 48.6729V51C44.0841 48.6413 49.0234 41.8983 49.0234 34.2204V29.5254L46.8279 31.0897Z" fill="white"/>
<path d="M25.172 34.2204V31.0897L22.9766 29.5255V34.2204C22.9766 41.8983 27.9159 48.6413 35.1211 51V48.6729C29.1441 46.403 25.172 40.6741 25.172 34.2204Z" fill="white"/>
</g>
</g>
</g>
<defs>
<clipPath id="clip0_94_2669">
<rect width="30" height="30" fill="white" transform="translate(21 21)"/>
</clipPath>
</defs>
</svg>
