<svg width="80" height="79" viewBox="0 0 80 79" fill="none" xmlns="http://www.w3.org/2000/svg">
<rect x="0.483997" y="0.483997" width="71.032" height="69.032" rx="11.516" stroke="#4555FF" stroke-width="0.967994" stroke-dasharray="3.87 3.87"/>
<rect x="8" y="8" width="72" height="71" rx="12" fill="#D015FF"/>
<g clip-path="url(#clip0_77_849)">
<path d="M51.0336 34.3911C51.0336 34.3912 51.0337 34.3912 51.0337 34.3912L52.2876 36.0424C52.435 36.2366 52.6596 36.3587 52.9039 36.3773C52.9257 36.3789 52.9475 36.3797 52.9691 36.3797C53.1907 36.3797 53.4045 36.2941 53.564 36.1394L56.3155 33.4707C56.4793 33.3115 56.5713 33.098 56.5744 32.8696C56.5776 32.6412 56.4916 32.4252 56.3324 32.2615C56.0036 31.9236 55.4612 31.9161 55.1235 32.2445L53.0646 34.2414L52.3943 33.3589C52.2565 33.1771 52.0561 33.0599 51.8301 33.0289C51.6041 32.9978 51.3796 33.0568 51.1979 33.1946C50.8227 33.4792 50.749 34.016 51.0336 34.3911ZM51.552 33.6614C51.6091 33.6181 51.6799 33.5996 51.7505 33.6094C51.8215 33.6192 51.8843 33.6559 51.9277 33.7131L52.798 34.8591C52.8487 34.9258 52.9256 34.9677 53.0092 34.974C53.0938 34.9801 53.1752 34.9505 53.2353 34.8922L55.5318 32.6648C55.6382 32.5613 55.8089 32.5637 55.9124 32.6701C55.9625 32.7216 55.9896 32.7896 55.9886 32.8615C55.9876 32.9334 55.9587 33.0006 55.9074 33.0504L53.1561 35.7188C53.1006 35.7726 53.0263 35.7988 52.9484 35.793C52.8701 35.7871 52.8012 35.7499 52.7543 35.6881L51.5003 34.0369H51.5004C51.4111 33.9192 51.4343 33.7508 51.552 33.6614ZM55.4329 45.2561C55.6328 43.9382 55.7352 42.5215 55.7352 41.0404V38.0366C57.241 37.3371 58.2881 35.8113 58.2881 34.0445C58.2881 31.6184 56.3143 29.6446 53.8882 29.6446C52.1063 29.6446 50.5696 30.71 49.8784 32.2366L44.5472 29.783C44.1452 29.598 43.7201 29.5981 43.318 29.783L32.9856 34.5383C32.458 34.7812 32.1302 35.2928 32.1302 35.8737V37.3952L29.8956 39.5007C29.7783 39.6113 29.7109 39.7668 29.7109 39.9272C29.7109 40.0877 29.7783 40.2431 29.8956 40.3537L32.1641 42.4912C32.3074 45.5764 32.9212 48.3008 33.9906 50.589C34.8813 52.4947 36.0916 54.112 37.588 55.3957C40.2065 57.6422 42.9311 58.2149 43.7038 58.3369C43.783 58.3494 43.8578 58.3557 43.9326 58.3557C44.0075 58.3557 44.0824 58.3494 44.1616 58.3369C45.3327 58.1519 51.2688 56.882 54.1585 49.944V50.7331C54.1585 50.9709 54.2941 51.1771 54.5123 51.2713C54.589 51.3044 54.6687 51.3206 54.7473 51.3206C54.8926 51.3206 55.0343 51.2655 55.1465 51.1597L57.9697 48.4996C58.087 48.3889 58.1543 48.2335 58.1543 48.0731C58.1543 47.9126 58.087 47.7571 57.9696 47.6465L55.4329 45.2561ZM55.1492 41.0404C55.1492 42.3724 55.0655 43.6505 54.9007 44.8478C54.7752 44.8127 54.6397 44.8196 54.5123 44.8746C54.2941 44.9688 54.1586 45.175 54.1586 45.4128V46.2316H53.3118C53.6512 44.6537 53.8233 42.9096 53.8233 41.0404V38.4428C53.845 38.4431 53.8664 38.4445 53.8882 38.4445C54.3264 38.4445 54.7495 38.3792 55.1492 38.2594V41.0404H55.1492ZM48.2811 49.9144H51.4252C50.7528 51.2418 49.8899 52.3866 48.8543 53.3211C47.4598 54.5793 45.5789 55.5421 43.9327 55.8423C42.2865 55.542 40.4056 54.5793 39.0112 53.3211C36.2351 50.8161 34.7651 46.9298 34.6379 41.7686H36.9358C36.7108 42.4726 36.5888 43.2223 36.5888 44.0001C36.5888 48.0495 39.8833 51.3439 43.9328 51.3439C45.5588 51.344 47.0629 50.8124 48.2811 49.9144ZM43.9327 50.7581C40.2063 50.7581 37.1747 47.7265 37.1747 44.0002C37.1747 40.2738 40.2063 37.2422 43.9327 37.2422C47.6591 37.2422 50.6907 40.2738 50.6907 44.0002C50.6907 47.7265 47.6591 50.7581 43.9327 50.7581ZM43.9327 36.6562C42.3066 36.6562 40.8025 37.1877 39.5843 38.0858H34.628V36.5321L43.9327 32.2499L49.5619 34.8405C49.8991 36.6777 51.3801 38.1194 53.2374 38.396V41.0404C53.2374 42.9174 53.0604 44.6621 52.7119 46.2316H50.9296C51.1547 45.5275 51.2766 44.7778 51.2766 44.0001C51.2766 39.9507 47.9822 36.6562 43.9327 36.6562ZM53.8882 30.2306C55.9913 30.2306 57.7022 31.9415 57.7022 34.0445C57.7022 36.1476 55.9913 37.8585 53.8882 37.8585C51.7852 37.8585 50.0743 36.1476 50.0743 34.0445C50.0743 31.9415 51.7852 30.2306 53.8882 30.2306ZM32.7162 35.8737C32.7162 35.5191 32.9085 35.2189 33.2307 35.0706L43.563 30.3153C43.8084 30.2025 44.057 30.2024 44.3023 30.3153L49.6724 32.7868C49.5532 33.1856 49.4883 33.6076 49.4883 34.0445C49.4883 34.0843 49.4902 34.1236 49.4913 34.1631L44.0551 31.6612C43.9773 31.6254 43.8879 31.6254 43.8101 31.6612L34.2124 36.0783C34.1085 36.1261 34.042 36.23 34.042 36.3444V38.0858H33.7067V37.2671C33.7067 37.0293 33.5712 36.823 33.3529 36.7288C33.1347 36.6347 32.8918 36.6775 32.7187 36.8405L32.716 36.843V35.8737H32.7162ZM33.1209 37.2671V38.3788C33.1209 38.5406 33.252 38.6718 33.4138 38.6718H38.8841C38.144 39.3735 37.5496 40.2274 37.1512 41.1827H33.4138C33.252 41.1827 33.1209 41.3139 33.1209 41.4756L33.1206 42.5875L30.2975 39.9271L33.1209 37.2671ZM44.0702 57.7581C43.9726 57.7736 43.893 57.7736 43.7952 57.7581C43.0611 57.6421 40.4711 57.097 37.9696 54.951C34.8788 52.2993 33.1367 48.3029 32.7838 43.0664C32.8836 43.1374 32.9995 43.1747 33.118 43.1747C33.1967 43.1747 33.2765 43.1586 33.3531 43.1255C33.5713 43.0312 33.7069 42.8251 33.7069 42.5872V41.7685H34.052C34.1808 47.1039 35.7159 51.1367 38.6187 53.756C40.1046 55.0969 42.1216 56.1209 43.8823 56.4284C43.899 56.4313 43.9158 56.4328 43.9327 56.4328C43.9496 56.4328 43.9664 56.4313 43.9831 56.4284C45.7438 56.1209 47.7607 55.0969 49.2468 53.756C50.4047 52.7112 51.3562 51.4191 52.0784 49.9143H53.5348C50.7362 56.3931 45.1758 57.5835 44.0702 57.7581ZM54.7445 50.733V49.6214C54.7445 49.4596 54.6134 49.3284 54.4516 49.3284H48.9813C49.7215 48.6267 50.316 47.7729 50.7143 46.8175H54.4516C54.6135 46.8175 54.7446 46.6863 54.7446 46.5245L54.7449 45.4128L57.568 48.073L54.7445 50.733ZM43.9327 38.6998C41.0101 38.6998 38.6324 41.0775 38.6324 44.0001C38.6324 46.9227 41.0101 49.3004 43.9327 49.3004C46.8553 49.3004 49.233 46.9226 49.233 44.0001C49.233 41.0775 46.8553 38.6998 43.9327 38.6998ZM43.9327 48.7145C41.3332 48.7145 39.2183 46.5996 39.2183 44.0002C39.2183 41.4006 41.3332 39.2858 43.9327 39.2858C46.5321 39.2858 48.647 41.4006 48.647 44.0002C48.647 46.5996 46.5322 48.7145 43.9327 48.7145ZM45.4455 45.2198C45.4455 45.9537 44.9201 46.5673 44.2257 46.7041V47.0641C44.2257 47.2259 44.0946 47.3571 43.9328 47.3571C43.7709 47.3571 43.6398 47.2259 43.6398 47.0641V46.7041C43.2443 46.6266 42.8932 46.3934 42.6669 46.0481C42.5782 45.9127 42.616 45.7311 42.7513 45.6425C42.8867 45.5536 43.0681 45.5915 43.1569 45.7269C43.3292 45.9897 43.6192 46.1466 43.9328 46.1466C44.4438 46.1466 44.8595 45.7309 44.8595 45.2199C44.8595 44.7088 44.4437 44.2931 43.9328 44.2931C43.0987 44.2931 42.4201 43.6145 42.4201 42.7805C42.4201 42.0465 42.9454 41.433 43.6398 41.2962V40.9361C43.6398 40.7743 43.7709 40.6431 43.9328 40.6431C44.0946 40.6431 44.2257 40.7743 44.2257 40.9361V41.2961C44.6212 41.3737 44.9723 41.6069 45.1986 41.9521C45.2873 42.0875 45.2495 42.2691 45.1142 42.3578C44.9788 42.4465 44.7973 42.4086 44.7086 42.2734C44.5363 42.0105 44.2462 41.8536 43.9328 41.8536C43.4218 41.8536 43.006 42.2694 43.006 42.7804C43.006 43.2914 43.4218 43.7071 43.9328 43.7071C44.7668 43.7071 45.4455 44.3857 45.4455 45.2198Z" fill="white"/>
</g>
<defs>
<clipPath id="clip0_77_849">
<rect width="30" height="30" fill="white" transform="translate(29 29)"/>
</clipPath>
</defs>
</svg>
