<svg width="24" height="24" viewBox="0 0 24 24" fill="none" xmlns="http://www.w3.org/2000/svg">
<g clip-path="url(#clip0_77_325)">
<path fill-rule="evenodd" clip-rule="evenodd" d="M20.7882 7.61757C21.1461 7.43402 21.5683 7.54415 21.8161 7.87455C22.0823 8.24166 22.018 8.73727 21.6417 9.0126L20.4486 9.88449C20.1641 10.0864 19.7786 10.0864 19.4941 9.88449L18.301 9.0126C17.9247 8.73727 17.8605 8.24166 18.1266 7.87455C18.3652 7.54415 18.7966 7.43402 19.1454 7.61757C19.1454 6.59883 19.1454 5.5801 19.1454 4.56136C19.1454 4.48794 19.0903 4.43287 19.026 4.43287H15.3457C14.8868 4.43287 14.5381 4.06576 14.5381 3.61604C14.5381 3.15715 14.8868 2.79004 15.3457 2.79004H19.1086C20.0356 2.79004 20.7882 3.5518 20.7882 4.46958V7.61757ZM15.3457 3.34989H19.1086C19.7236 3.34989 20.2283 3.85467 20.2283 4.46958V8.70056L21.0084 8.14071C21.2746 7.94797 21.5775 8.36098 21.3113 8.56289L20.1182 9.4256C20.0264 9.48985 19.9163 9.48985 19.8245 9.4256L18.6314 8.56289C18.3561 8.36098 18.6681 7.94797 18.9343 8.14071L19.7052 8.70056C19.7052 7.47073 19.7052 5.79119 19.7052 4.56136C19.7052 4.17589 19.4023 3.87302 19.026 3.87302H15.3457C15.0153 3.87302 15.0153 3.34989 15.3457 3.34989Z" fill="white"/>
<path fill-rule="evenodd" clip-rule="evenodd" d="M2.92822 16.364C2.57029 16.5476 2.13893 16.4375 1.9003 16.1071C1.63415 15.7399 1.69839 15.2352 2.07468 14.969L3.2678 14.0971C3.55231 13.8952 3.93778 13.8952 4.22229 14.0971L5.41541 14.969C5.7917 15.2352 5.85595 15.7399 5.58979 16.1071C5.35117 16.4375 4.91981 16.5476 4.56187 16.364V19.4202C4.56187 19.4937 4.62612 19.5487 4.69036 19.5487H8.36149C8.82956 19.5487 9.17832 19.9159 9.17832 20.3656C9.17832 20.8245 8.82956 21.1916 8.36149 21.1916H4.60776C3.6808 21.1916 2.92822 20.4298 2.92822 19.512C2.92822 18.4566 2.92822 17.4103 2.92822 16.364ZM8.36149 20.6317H4.60776C3.99285 20.6317 3.48807 20.1269 3.48807 19.512C3.48807 18.2455 3.48807 16.5384 3.48807 15.2811L2.70795 15.8409C2.4418 16.0336 2.13893 15.6115 2.40508 15.4187L3.5982 14.556C3.68998 14.4918 3.80011 14.4918 3.89189 14.556L5.08501 15.4187C5.36034 15.6115 5.0483 16.0336 4.78214 15.8409L4.00203 15.2811V19.4202C4.00203 19.7965 4.31407 20.1086 4.69036 20.1086H8.36149C8.70107 20.1086 8.70107 20.6317 8.36149 20.6317Z" fill="white"/>
<path fill-rule="evenodd" clip-rule="evenodd" d="M19.2281 12.8397C19.6778 13.0875 20.0908 13.3996 20.4488 13.7667H21.3482C20.7333 13.2803 20.0082 12.9499 19.2281 12.8397ZM22.5505 15.1434H21.4675C21.3023 14.8313 21.1188 14.5468 20.9077 14.2807H21.9081C22.1467 14.5376 22.3669 14.8313 22.5505 15.1434ZM21.7061 15.6573H22.835C22.9543 15.9235 23.0553 16.1896 23.1379 16.4742H21.9815C21.9081 16.1988 21.8163 15.9235 21.7061 15.6573ZM22.1008 16.9973H23.2572C23.3123 17.2726 23.349 17.5663 23.3582 17.86H22.1926C22.1742 17.5663 22.1467 17.2818 22.1008 16.9973ZM22.1926 18.374C22.1834 18.6677 22.1467 18.9613 22.1008 19.2367H23.2572C23.3123 18.9613 23.349 18.6677 23.3582 18.374H22.1926ZM22.5505 21.0998H21.4675C21.3023 21.4026 21.1188 21.6872 20.9077 21.9533H21.9081C22.1467 21.6963 22.3669 21.4118 22.5505 21.0998ZM21.7061 20.5766H22.835C22.9543 20.3197 23.0553 20.0443 23.1379 19.7598H21.9815C21.9081 20.0443 21.8163 20.3105 21.7061 20.5766ZM20.4488 22.4765C20.0908 22.8436 19.6778 23.1556 19.2281 23.3942C20.0082 23.2841 20.7333 22.9629 21.3482 22.4765H20.4488ZM16.8878 24C13.9601 24 11.583 21.3659 11.583 18.117C11.583 14.868 13.9601 12.2432 16.8878 12.2432C17.466 12.2432 18.0442 12.234 18.6224 12.234C21.5501 12.234 23.9272 14.868 23.9272 18.117C23.9272 21.3659 21.5501 24 18.6224 24C18.0442 24 17.466 24 16.8878 24ZM16.8878 12.7939C19.5126 12.7939 21.6419 15.1801 21.6419 18.117C21.6419 21.0539 19.5126 23.4401 16.8878 23.4401C14.2629 23.4401 12.1429 21.0539 12.1429 18.117C12.1429 15.1801 14.2629 12.7939 16.8878 12.7939Z" fill="white"/>
<path fill-rule="evenodd" clip-rule="evenodd" d="M16.8882 13.3538C19.201 13.3538 21.0825 15.4922 21.0825 18.117C21.0825 20.7511 19.201 22.8803 16.8882 22.8803C14.5754 22.8803 12.7031 20.7511 12.7031 18.117C12.7031 15.4922 14.5754 13.3538 16.8882 13.3538ZM16.8882 13.9136C18.8982 13.9136 20.5226 15.7951 20.5226 18.117C20.5226 20.439 18.8982 22.3205 16.8882 22.3205C14.8874 22.3205 13.263 20.439 13.263 18.117C13.263 15.7951 14.8874 13.9136 16.8882 13.9136Z" fill="white"/>
<path d="M17.2645 16.309V15.9511C17.2645 15.7859 17.1177 15.6482 16.9525 15.6482H16.824C16.6588 15.6482 16.5211 15.7859 16.5211 15.9511V16.309C16.0898 16.4467 15.7686 16.8413 15.7686 17.3186C15.7686 17.7224 15.998 18.0895 16.3559 18.2731L17.081 18.631C17.1911 18.6861 17.2645 18.7962 17.2645 18.9155C17.2645 19.0899 17.1177 19.2367 16.9433 19.2367H16.8332C16.6863 19.2367 16.5946 19.1633 16.5487 19.0532C16.5028 18.9339 16.3926 18.8604 16.2642 18.8604H16.1357C16.0255 18.8604 15.9429 18.9063 15.8787 18.9981C15.8236 19.0807 15.8053 19.1817 15.842 19.2734C15.9429 19.5855 16.1724 19.8149 16.5211 19.9251V20.283C16.5211 20.4574 16.6588 20.595 16.824 20.595H16.9525C17.1177 20.595 17.2645 20.4574 17.2645 20.283V19.9251C17.6959 19.7874 18.0079 19.3927 18.0079 18.9155C18.0079 18.5117 17.7785 18.1446 17.4206 17.9702L16.6955 17.6031C16.5854 17.548 16.5211 17.4379 16.5211 17.3186C16.5211 17.1442 16.6588 16.9973 16.8332 16.9973H16.9433C17.0902 16.9973 17.1819 17.0799 17.2278 17.1809C17.2737 17.3002 17.3839 17.3736 17.5123 17.3736H17.6408C17.751 17.3736 17.8427 17.3277 17.8978 17.2451C17.9621 17.1625 17.9712 17.0616 17.9345 16.9606C17.8336 16.6578 17.6041 16.4191 17.2645 16.309Z" fill="white"/>
<path fill-rule="evenodd" clip-rule="evenodd" d="M7.71934 0.605736C8.16906 0.844359 8.58206 1.15641 8.93999 1.52352H9.83942C9.22451 1.03709 8.49946 0.71587 7.71934 0.605736ZM11.0509 2.90019H9.95873C9.79353 2.59732 9.60997 2.31281 9.39888 2.04665H10.3993C10.6379 2.30363 10.8582 2.58815 11.0509 2.90019ZM10.2065 3.42333H11.3262C11.4455 3.68031 11.5465 3.95564 11.6291 4.24015H10.4819C10.4084 3.95564 10.3075 3.68948 10.2065 3.42333ZM10.592 4.76329H11.7576C11.8035 5.03862 11.8402 5.32314 11.8585 5.61683H10.6838C10.6746 5.32314 10.6379 5.03862 10.592 4.76329ZM10.6838 6.13996C10.6746 6.43365 10.6379 6.71816 10.592 7.00268H11.7576C11.8035 6.71816 11.8402 6.43365 11.8585 6.13996H10.6838ZM11.0509 8.8566H9.95873C9.79353 9.15946 9.60997 9.45315 9.39888 9.71931H10.3993C10.6379 9.45315 10.8582 9.16864 11.0509 8.8566ZM10.2065 8.34264H11.3262C11.4455 8.07648 11.5465 7.80115 11.6291 7.52581H10.4819C10.4084 7.80115 10.3167 8.07648 10.2065 8.34264ZM8.93999 10.2333C8.58206 10.6004 8.16906 10.9124 7.71934 11.1602C8.49946 11.0501 9.22451 10.7197 9.83942 10.2333H8.93999ZM5.379 11.7568C2.45127 11.7568 0.0742188 9.13193 0.0742188 5.88298C0.0742188 2.63403 2.45127 0 5.379 0H7.11361C10.0413 0 12.4184 2.63403 12.4184 5.88298C12.4184 9.13193 10.0413 11.766 7.11361 11.766C6.5354 11.766 5.9572 11.7568 5.379 11.7568ZM5.379 0.559847C8.00386 0.559847 10.1331 2.94608 10.1331 5.88298C10.1331 8.81988 8.00386 11.2061 5.379 11.2061C2.75414 11.2061 0.634066 8.81988 0.634066 5.88298C0.634066 2.94608 2.75414 0.559847 5.379 0.559847Z" fill="white"/>
<path fill-rule="evenodd" clip-rule="evenodd" d="M5.37845 1.11963C7.69126 1.11963 9.57271 3.24888 9.57271 5.88292C9.57271 8.50777 7.69126 10.6462 5.37845 10.6462C3.06564 10.6462 1.19336 8.50777 1.19336 5.88292C1.19336 3.24888 3.06564 1.11963 5.37845 1.11963ZM5.37845 1.67948C7.38839 1.67948 9.01286 3.56093 9.01286 5.88292C9.01286 8.20491 7.38839 10.0864 5.37845 10.0864C3.37768 10.0864 1.75321 8.20491 1.75321 5.88292C1.75321 3.56093 3.37768 1.67948 5.37845 1.67948Z" fill="white"/>
<path d="M5.379 7.07612L3.90137 6.20422L5.379 8.28759L6.85663 6.20422L5.379 7.07612Z" fill="white"/>
<path d="M5.379 4.68069L3.90137 5.55258L5.379 3.47839L6.85663 5.55258L5.379 4.68069Z" fill="white"/>
<path fill-rule="evenodd" clip-rule="evenodd" d="M3.84668 5.88287L5.37938 4.96509L6.91207 5.88287L5.37938 6.80065L3.84668 5.88287Z" fill="white"/>
</g>
<defs>
<clipPath id="clip0_77_325">
<rect width="24" height="24" fill="white" transform="translate(0.000976562)"/>
</clipPath>
</defs>
</svg>
