<svg width="72" height="71" viewBox="0 0 72 71" fill="none" xmlns="http://www.w3.org/2000/svg">
<rect width="72" height="71" rx="12" fill="#D015FF"/>
<path d="M40.3945 23.1316V26.2734H43.5363L40.3945 23.1316Z" fill="white"/>
<mask id="mask0_94_2709" style="mask-type:luminance" maskUnits="userSpaceOnUse" x="21" y="21" width="30" height="30">
<path d="M21 21H51V51H21V21Z" fill="white"/>
</mask>
<g mask="url(#mask0_94_2709)">
<path d="M44.7893 21.0096H40.7588L45.6682 25.9191V21.8885C45.6682 21.4031 45.2747 21.0096 44.7893 21.0096Z" fill="white"/>
<path d="M33.6562 41.8489V44.0859H38.3437V41.8489C37.6237 42.1571 36.8314 42.3279 36 42.3279C35.1686 42.3279 34.3763 42.1571 33.6562 41.8489Z" fill="white"/>
<path d="M39.5156 28.0313C39.0302 28.0313 38.6367 27.6377 38.6367 27.1523V21.0098H27.2109C26.7255 21.0098 26.332 21.4032 26.332 21.8887V45.4922C26.332 45.9776 26.7255 46.3711 27.2109 46.3711H31.8984V40.8761C31.8984 40.818 31.9021 40.7603 31.9079 40.703C30.7486 39.6122 30.0234 38.065 30.0234 36.3514C30.0234 33.0559 32.7045 30.3749 36 30.3749C39.2955 30.3749 41.9766 33.0559 41.9766 36.3514C41.9766 38.0746 41.2433 39.6294 40.0726 40.7212C40.0912 40.8237 40.1016 40.929 40.1016 41.0368V46.3711H44.7891C45.2745 46.3711 45.668 45.9776 45.668 45.4922V28.0309C45.6647 28.0309 45.6615 28.0313 45.6582 28.0313H39.5156Z" fill="white"/>
<path d="M33.6562 48.4334C33.6562 49.8449 34.7106 50.9997 35.9995 51H36C37.2891 51 38.3437 49.8451 38.3437 48.4334V45.8437H33.6562V48.4334Z" fill="white"/>
<path d="M36 32.1323C33.6738 32.1323 31.7812 34.0248 31.7812 36.3511C31.7812 38.6773 33.6738 40.5698 36 40.5698C38.3262 40.5698 40.2188 38.6773 40.2188 36.3511C40.2188 34.0248 38.3262 32.1323 36 32.1323Z" fill="white"/>
</g>
</svg>
