<svg width="72" height="71" viewBox="0 0 72 71" fill="none" xmlns="http://www.w3.org/2000/svg">
<rect width="72" height="71" rx="12" fill="#D015FF"/>
<mask id="mask0_94_2653" style="mask-type:luminance" maskUnits="userSpaceOnUse" x="21" y="21" width="30" height="30">
<path d="M21 21H51V51H21V21Z" fill="white"/>
</mask>
<g mask="url(#mask0_94_2653)">
<path d="M32.8073 31.6369L34.0554 30.3991L35.9197 32.2789L38.9408 29.0337C38.1094 28.2209 36.9732 27.7185 35.7213 27.7185C33.1799 27.7185 31.1123 29.7861 31.1123 32.3275C31.1123 34.869 33.1799 36.9366 35.7213 36.9366C38.2628 36.9366 40.3304 34.869 40.3304 32.3275C40.3304 31.6857 40.1981 31.0743 39.9601 30.5186L35.9597 34.8156L32.8073 31.6369Z" fill="white"/>
<path d="M41.3842 42.0935H30.6167V40.3356H41.3842V42.0935ZM42.0886 32.3275C42.0886 35.8382 39.2325 38.6944 35.7218 38.6944C32.2111 38.6944 29.3549 35.8382 29.3549 32.3275C29.3549 28.8168 32.2111 25.9607 35.7218 25.9607C37.4357 25.9607 38.9934 26.6416 40.1392 27.747L41.1238 26.6893L42.4104 27.8871L41.2363 29.1481C41.7782 30.0843 42.0886 31.1703 42.0886 32.3275ZM43.5004 20.9998H28.5004C26.1858 20.9998 24.3027 22.8829 24.3027 25.1975V43.6184C24.3027 45.933 26.1858 47.8161 28.5004 47.8161H33.1115L36.0004 50.9957L38.8894 47.8161H43.5004C45.8151 47.8161 47.6982 45.933 47.6982 43.6184V25.1975C47.6982 22.8829 45.8151 20.9998 43.5004 20.9998Z" fill="white"/>
</g>
</svg>
