<svg width="32" height="32" viewBox="0 0 32 32" fill="none" xmlns="http://www.w3.org/2000/svg">
<path d="M19.2893 5.99905L17.6614 4.61172C16.7043 3.79609 15.2957 3.79609 14.3386 4.61172L12.7105 5.99909C12.3003 6.34861 11.7903 6.55974 11.2532 6.60261L9.12273 6.77253C7.86922 6.87256 6.87223 7.86798 6.7722 9.12149L6.60163 11.2537C6.55877 11.7908 6.34902 12.3005 5.9995 12.7107L4.61153 14.3389C3.7959 15.296 3.79628 16.7035 4.61192 17.6606L5.99863 19.2888C6.34815 19.6989 6.55994 20.2087 6.6028 20.7458L6.77337 22.878C6.8734 24.1315 7.86752 25.1269 9.12103 25.227L11.2538 25.3969C11.791 25.4397 12.3007 25.6509 12.7109 26.0004L14.3385 27.3878C15.2956 28.2034 16.7043 28.2033 17.6614 27.3876L19.289 26.0003C19.6991 25.6508 20.2089 25.44 20.746 25.3971L22.8788 25.227C24.1323 25.1269 25.1265 24.1313 25.2265 22.8778L25.3971 20.7457C25.4399 20.2085 25.6517 19.6984 26.0012 19.2882L27.388 17.6605C28.2036 16.7034 28.2035 15.2955 27.3878 14.3384L26.0011 12.7109C25.6516 12.3008 25.4395 11.7908 25.3967 11.2536L25.2272 9.12124C25.1271 7.86773 24.1315 6.87269 22.8779 6.77266L20.7459 6.60274C20.2087 6.55988 19.6995 6.34857 19.2893 5.99905Z" fill="#9428E9" stroke="#9428E9" stroke-width="2" stroke-linecap="round" stroke-linejoin="round"/>
<path d="M20 13.333L14.6667 18.6663L12 15.9997" stroke="white" stroke-width="2" stroke-linecap="round" stroke-linejoin="round"/>
</svg>
