<svg width="48" height="48" viewBox="0 0 48 48" fill="none" xmlns="http://www.w3.org/2000/svg">
<path d="M40.9706 7.02942C36.4376 2.49646 30.4105 0 24 0C17.5895 0 11.5624 2.49646 7.02942 7.02942C2.49646 11.5624 0 17.5895 0 24C0 30.4105 2.49646 36.4376 7.02942 40.9706C11.5624 45.5035 17.5895 48 24 48C30.4105 48 36.4376 45.5035 40.9706 40.9706C45.5035 36.4376 48 30.4105 48 24C48 17.5895 45.5035 11.5624 40.9706 7.02942ZM10.4161 40.2466C11.2086 33.4277 17.0713 28.1631 24 28.1631C27.6526 28.1631 31.0873 29.5862 33.6709 32.1694C35.8535 34.3524 37.2301 37.2026 37.5842 40.2462C33.9038 43.3286 29.165 45.1875 24 45.1875C18.835 45.1875 14.0966 43.329 10.4161 40.2466ZM24 25.2664C19.9808 25.2664 16.7106 21.9961 16.7106 17.9769C16.7106 13.9574 19.9808 10.6875 24 10.6875C28.0192 10.6875 31.2894 13.9574 31.2894 17.9769C31.2894 21.9961 28.0192 25.2664 24 25.2664ZM40.0049 37.8688C39.2882 34.9794 37.7937 32.3152 35.6594 30.1809C33.9309 28.4524 31.886 27.1556 29.6558 26.343C32.3368 24.5248 34.1019 21.453 34.1019 17.9769C34.1019 12.4069 29.5701 7.875 24 7.875C18.4299 7.875 13.8981 12.4069 13.8981 17.9769C13.8981 21.4548 15.6647 24.5277 18.3479 26.3456C16.296 27.0934 14.3972 28.2495 12.7635 29.7715C10.3978 31.9746 8.755 34.7838 7.99329 37.8666C4.76733 34.1477 2.8125 29.298 2.8125 24C2.8125 12.3171 12.3171 2.8125 24 2.8125C35.6829 2.8125 45.1875 12.3171 45.1875 24C45.1875 29.2991 43.2319 34.1499 40.0049 37.8688Z" fill="url(#paint0_linear_79_213)"/>
<defs>
<linearGradient id="paint0_linear_79_213" x1="24" y1="0" x2="24" y2="48" gradientUnits="userSpaceOnUse">
<stop stop-color="#712FFF"/>
<stop offset="1" stop-color="#1AE1AB"/>
</linearGradient>
</defs>
</svg>
