<svg width="48" height="48" viewBox="0 0 48 48" fill="none" xmlns="http://www.w3.org/2000/svg">
<path fill-rule="evenodd" clip-rule="evenodd" d="M1.93934 7.93934C2.52512 7.35355 3.47488 7.35355 4.06066 7.93934L5.95228 9.83096C6.84544 9.30344 7.88792 8.99999 9 8.99999H27C30.3136 8.99999 33 11.6863 33 15V17.3787L39.8786 10.5001C39.8786 10.5001 39.8786 10.5001 39.8786 10.5001C41.7686 8.61008 45 9.94875 45 12.6213V35.3786C45 38.0512 41.7686 39.3898 39.8788 37.5L33 30.6214V33C33 34.112 32.6966 35.1546 32.169 36.0478L34.0606 37.9394C34.6464 38.5252 34.6464 39.4748 34.0606 40.0606C33.4748 40.6464 32.5252 40.6464 31.9394 40.0606L1.93934 10.0607C1.35355 9.47488 1.35355 8.52512 1.93934 7.93934ZM8.2227 12.1014L29.8986 33.7774C29.9648 33.5296 30 33.269 30 33V15C30 13.3432 28.6568 12 27 12H9C8.73098 12 8.47048 12.0352 8.2227 12.1014ZM33 21.6214V26.3786L42 35.3786V12.6214L33 21.6214ZM4.5 16.5C5.32842 16.5 6 17.1716 6 18V33C6 34.6568 7.34316 36 9 36H24C24.8284 36 25.5 36.6716 25.5 37.5C25.5 38.3284 24.8284 39 24 39H9C5.68628 39 3 36.3136 3 33V18C3 17.1716 3.67158 16.5 4.5 16.5Z" fill="url(#paint0_linear_79_184)"/>
<defs>
<linearGradient id="paint0_linear_79_184" x1="23.25" y1="7.5" x2="23.25" y2="40.4999" gradientUnits="userSpaceOnUse">
<stop stop-color="#712FFF"/>
<stop offset="1" stop-color="#1AE1AB"/>
</linearGradient>
</defs>
</svg>
