<svg width="24" height="24" viewBox="0 0 24 24" fill="none" xmlns="http://www.w3.org/2000/svg">
<g id="fi_4625155" clipPath="url(#clip0_79_644)">
<g id="Group">
<path id="Vector" d="M12 4.23047C7.71586 4.23047 4.23047 7.71586 4.23047 12C4.23047 16.2841 7.71586 19.7695 12 19.7695C16.2841 19.7695 19.7695 16.2841 19.7695 12C19.7695 7.71586 16.2841 4.23047 12 4.23047ZM15.5056 12L12 15.5056L8.49436 12L12 8.49436L15.5056 12Z" fill="white"/>
<path id="Vector_2" d="M20.4853 3.51469C18.2188 1.24823 15.2053 0 12 0C8.79469 0 5.78123 1.24823 3.51469 3.51469C1.24823 5.78123 0 8.79469 0 12C0 15.2053 1.24823 18.2188 3.51469 20.4853C5.78123 22.7518 8.79469 24 12 24C15.2053 24 18.2188 22.7518 20.4853 20.4853C22.7518 18.2188 24 15.2053 24 12C24 8.79469 22.7518 5.78123 20.4853 3.51469ZM12 21.1758C6.94045 21.1758 2.82422 17.0595 2.82422 12C2.82422 6.94045 6.94045 2.82422 12 2.82422C17.0595 2.82422 21.1758 6.94045 21.1758 12C21.1758 17.0595 17.0595 21.1758 12 21.1758Z" fill="white"/>
</g>
</g>
<defs>
<clipPath id="clip0_79_644">
<rect width="24" height="24" fill="white"/>
</clipPath>
</defs>
</svg>
