<svg width="24" height="24" viewBox="0 0 24 24" fill="none" xmlns="http://www.w3.org/2000/svg">
<g id="fi_992667">
<g id="Group">
<g id="Group_2">
<path id="Vector" d="M21.0429 5.54339H13.4468C13.1385 5.54339 12.8373 5.41678 12.6293 5.20158L10.2592 2.70484C9.68947 2.13695 8.90998 1.84032 8.12052 1.84487H2.95706C1.32661 1.84482 0 3.17143 0 4.80183V19.1982C0 20.8286 1.32661 22.1553 2.95706 22.1553H21.0538H21.0565C22.6861 22.148 24.0072 20.8151 24 19.1891V8.5004C24 6.86995 22.6733 5.54339 21.0429 5.54339ZM22.1914 19.1928C22.1941 19.8258 21.6814 20.344 21.052 20.3467H2.95706C2.32406 20.3467 1.80862 19.8312 1.80862 19.1982V4.80183C1.80862 4.16883 2.32406 3.6534 2.95706 3.65246H8.14405C8.15399 3.65246 8.16392 3.65246 8.17391 3.65246C8.47592 3.65246 8.76894 3.77274 8.96605 3.96807L11.3235 6.45305C11.8769 7.02455 12.651 7.35192 13.4468 7.35192H21.0429C21.6759 7.35192 22.1913 7.86736 22.1913 8.50036V19.1928H22.1914Z" fill="white"/>
</g>
</g>
</g>
</svg>
