<svg xmlns="http://www.w3.org/2000/svg" width="20" height="20" viewBox="0 0 20 20" fill="none">
  <path d="M2.1085 12.3083C1.931 13.47 2.7235 14.2758 3.6935 14.6775C7.41267 16.2192 12.5877 16.2192 16.3068 14.6775C17.2768 14.2758 18.0693 13.4692 17.8918 12.3083C17.7835 11.5942 17.2443 11 16.8452 10.4192C16.3227 9.64917 16.271 8.81 16.2702 7.91667C16.271 4.465 13.4643 1.66667 10.0002 1.66667C6.536 1.66667 3.72933 4.465 3.72933 7.91667C3.72933 8.81 3.67767 9.65 3.15433 10.4192C2.756 11 2.21767 11.5942 2.1085 12.3083Z" stroke="#1AE1AB" stroke-width="1.25" stroke-linecap="round" stroke-linejoin="round"/>
  <path d="M6.6665 15.8333C7.04817 17.2708 8.3965 18.3333 9.99984 18.3333C11.604 18.3333 12.9507 17.2708 13.3332 15.8333" stroke="#1AE1AB" stroke-width="1.25" stroke-linecap="round" stroke-linejoin="round"/>
</svg>