<svg width="100" height="100" viewBox="0 0 100 100" fill="none" xmlns="http://www.w3.org/2000/svg">
<circle cx="50" cy="50" r="50" fill="url(#paint0_radial_265_385)"/>
<path d="M46.3315 46.7935H39C38.241 46.7935 37.625 46.1775 37.625 45.4185C37.625 44.6595 38.241 44.0435 39 44.0435H46.3315C47.0905 44.0435 47.7065 44.6595 47.7065 45.4185C47.7065 46.1775 47.0905 46.7935 46.3315 46.7935Z" fill="white"/>
<path d="M66.192 59.625H61.418C57.3975 59.625 54.125 56.5395 54.125 52.75C54.125 48.9605 57.3975 45.875 61.4235 45.875H66.1975C66.3735 45.875 66.467 45.875 66.5715 45.8805C68.2435 45.985 69.591 47.2665 69.701 48.867C69.7065 48.977 69.7065 49.076 69.7065 49.2355V56.2645C69.7065 56.4295 69.7065 56.523 69.701 56.633C69.5855 58.2335 68.2435 59.515 66.5715 59.6195C66.467 59.625 66.368 59.625 66.192 59.625ZM61.4235 48.625C58.9155 48.625 56.875 50.473 56.875 52.75C56.875 55.027 58.9155 56.875 61.4235 56.875H66.1975H66.4065C66.698 56.8585 66.94 56.666 66.9565 56.4405C66.9565 56.424 66.9565 56.3415 66.9565 56.2645V49.2355C66.9565 49.1585 66.9565 49.076 66.9565 49.054C66.94 48.834 66.698 48.6415 66.401 48.625C66.379 48.625 66.2855 48.625 66.192 48.625H61.4235Z" fill="white"/>
<path d="M51.8326 68.7935H46.3326C42.7686 68.7935 40.1891 68.7935 38.1046 68.513C35.7121 68.194 34.0896 67.49 32.8411 66.2415C31.5926 64.993 30.8941 63.3705 30.5696 60.978C30.2891 58.888 30.2891 56.314 30.2891 52.75C30.2891 49.186 30.2891 46.6065 30.5696 44.522C30.8886 42.1295 31.5926 40.507 32.8411 39.2585C34.0896 38.01 35.7121 37.3115 38.1046 36.987C40.1946 36.7065 42.7686 36.7065 46.3326 36.7065H51.8326C55.3966 36.7065 57.9761 36.7065 60.0606 36.987C62.4531 37.306 64.0756 38.01 65.3241 39.2585C67.1996 41.134 67.6616 43.6805 67.8101 47.195L65.0601 47.3105C64.9226 43.95 64.4661 42.2945 63.3771 41.2055C61.6336 39.462 58.3556 39.462 51.8326 39.462H46.3326C39.8041 39.462 36.5316 39.462 34.7881 41.2055C33.0446 42.949 33.0446 46.227 33.0446 52.75C33.0446 59.2785 33.0446 62.551 34.7881 64.2945C36.5316 66.038 39.8096 66.038 46.3326 66.038H51.8326C58.3611 66.038 61.6336 66.038 63.3771 64.2945C64.4661 63.2055 64.9171 61.5555 65.0601 58.1895L67.8101 58.305C67.6671 61.814 67.1996 64.366 65.3241 66.2415C64.0756 67.49 62.4531 68.1885 60.0606 68.513C57.9761 68.7935 55.4021 68.7935 51.8326 68.7935Z" fill="white"/>
<path d="M59.1623 39.4567C58.9038 39.4567 58.6398 39.3852 58.4033 39.2257L51.5558 34.6827C50.0983 33.7147 48.0633 33.7147 46.6058 34.6827L39.7583 39.2257C39.1258 39.6437 38.2733 39.4732 37.8498 38.8407C37.4318 38.2082 37.6023 37.3557 38.2348 36.9322L45.0823 32.3892C47.4693 30.8052 50.6813 30.8052 53.0738 32.3892L59.9213 36.9322C60.5538 37.3502 60.7298 38.2027 60.3063 38.8407C60.0478 39.2422 59.6078 39.4567 59.1623 39.4567Z" fill="white"/>
<path d="M61.0003 54.5815H60.9838C59.9718 54.5815 59.1523 53.762 59.1523 52.75C59.1523 51.738 59.9718 50.9185 60.9838 50.9185H61.0003C62.0123 50.9185 62.8318 51.738 62.8318 52.75C62.8318 53.762 62.0123 54.5815 61.0003 54.5815Z" fill="white"/>
<defs>
<radialGradient id="paint0_radial_265_385" cx="0" cy="0" r="1" gradientUnits="userSpaceOnUse" gradientTransform="translate(58.3726 50) scale(58.3726)">
<stop stop-color="#00AEEF"/>
<stop offset="1" stop-color="#FF88DC"/>
</radialGradient>
</defs>
</svg>
