<svg width="52" height="52" viewBox="0 0 52 52" fill="none" xmlns="http://www.w3.org/2000/svg">
<circle cx="26" cy="26" r="26" fill="url(#paint0_radial_264_1397)"/>
<path d="M35.5035 23.1534C35.9149 23.1534 36.2483 22.82 36.2483 22.4086C36.2483 21.9973 35.9149 21.6638 35.5035 21.6638V23.1534ZM26.0015 34.7032L25.2971 34.9452C25.4004 35.246 25.6834 35.448 26.0015 35.448C26.3196 35.448 26.6026 35.246 26.7059 34.9452L26.0015 34.7032ZM16.4995 21.6638C16.0882 21.6638 15.7547 21.9973 15.7547 22.4086C15.7547 22.82 16.0882 23.1534 16.4995 23.1534V21.6638ZM31.9372 18.2721L34.839 21.5779L35.9585 20.5952L33.0567 17.2895L31.9372 18.2721ZM34.9011 23.3602L27.0822 33.6531L28.2683 34.5541L36.0873 24.2612L34.9011 23.3602ZM24.921 33.6531L17.1019 23.3602L15.9158 24.2612L23.7348 34.5541L24.921 33.6531ZM17.1641 21.5779L20.0659 18.2721L18.9464 17.2895L16.0446 20.5952L17.1641 21.5779ZM28.1131 17.8079H30.9187V16.3184H28.1131V17.8079ZM30.2246 23.1534H35.5035V21.6638H30.2246V23.1534ZM27.4204 17.3368L29.5319 22.6823L30.9173 22.135L28.8058 16.7895L27.4204 17.3368ZM26.7059 34.9452L30.9291 22.6506L29.5202 22.1667L25.2971 34.4613L26.7059 34.9452ZM21.0843 17.8079H24.1245V16.3184H21.0843V17.8079ZM24.1245 17.8079H28.1131V16.3184H24.1245V17.8079ZM16.4995 23.1534H21.7784V21.6638H16.4995V23.1534ZM21.7784 23.1534H30.2246V21.6638H21.7784V23.1534ZM23.4426 16.7638L21.0964 22.1093L22.4604 22.708L24.8066 17.3625L23.4426 16.7638ZM26.7059 34.4613L22.4828 22.1667L21.074 22.6506L25.2971 34.9452L26.7059 34.4613ZM17.1019 23.3602C16.6978 22.8282 16.7245 22.0785 17.1641 21.5779L16.0446 20.5952C15.1373 21.6288 15.0838 23.1661 15.9158 24.2612L17.1019 23.3602ZM27.0822 33.6531C26.5349 34.3734 25.4682 34.3734 24.921 33.6531L23.7348 34.5541C24.8781 36.0592 27.125 36.0592 28.2683 34.5541L27.0822 33.6531ZM34.839 21.5779C35.2785 22.0785 35.3053 22.8282 34.9011 23.3602L36.0873 24.2612C36.9192 23.1661 36.8657 21.6288 35.9585 20.5952L34.839 21.5779ZM33.0567 17.2895C32.5157 16.6732 31.7379 16.3184 30.9187 16.3184V17.8079C31.3057 17.8079 31.6767 17.9755 31.9372 18.2721L33.0567 17.2895ZM20.0659 18.2721C20.3263 17.9755 20.6973 17.8079 21.0843 17.8079V16.3184C20.2651 16.3184 19.4874 16.6732 18.9464 17.2895L20.0659 18.2721Z" fill="white"/>
<defs>
<radialGradient id="paint0_radial_264_1397" cx="0" cy="0" r="1" gradientUnits="userSpaceOnUse" gradientTransform="translate(30.3538 26) scale(30.3538)">
<stop stop-color="#00AEEF"/>
<stop offset="1" stop-color="#FF88DC"/>
</radialGradient>
</defs>
</svg>
