<svg xmlns="http://www.w3.org/2000/svg" width="20" height="20" viewBox="0 0 20 20" fill="none">
  <g clipPath="url(#clip0_79_598)">
    <path d="M13.59 3.65333C13.0983 3.65333 12.8517 3.65333 12.6275 3.57L12.535 3.53167C12.3175 3.43167 12.1433 3.25833 11.795 2.91C10.9933 2.10833 10.5925 1.7075 10.1 1.67C10.0334 1.666 9.9666 1.666 9.89999 1.67C9.40749 1.7075 9.00666 2.10833 8.20499 2.91C7.85666 3.25833 7.68249 3.4325 7.46499 3.53167L7.37333 3.57C7.14833 3.65333 6.90249 3.65333 6.40999 3.65333H6.31833C5.06249 3.65333 4.43416 3.65333 4.04333 4.04333C3.6525 4.43333 3.65333 5.0625 3.65333 6.31833V6.41C3.65333 6.90167 3.65333 7.14833 3.56999 7.3725C3.55777 7.40417 3.54499 7.435 3.53166 7.465C3.43166 7.6825 3.25833 7.85667 2.90999 8.205C2.10833 9.00666 1.70749 9.4075 1.66999 9.9C1.66599 9.96661 1.66599 10.0334 1.66999 10.1C1.70749 10.5925 2.10833 10.9933 2.90999 11.795C3.25833 12.1433 3.43249 12.3175 3.53166 12.535C3.54555 12.565 3.55833 12.5956 3.56999 12.6267C3.65333 12.8517 3.65333 13.0975 3.65333 13.59V13.6817C3.65333 14.9375 3.65333 15.5658 4.04333 15.9567C4.43333 16.3475 5.06249 16.3467 6.31833 16.3467H6.40999C6.90166 16.3467 7.14833 16.3467 7.37249 16.43C7.40416 16.4417 7.43499 16.4544 7.46499 16.4683C7.68249 16.5683 7.85666 16.7417 8.20499 17.09C9.00666 17.8917 9.40749 18.2925 9.89999 18.33C9.96666 18.335 10.0333 18.335 10.1 18.33C10.5925 18.2925 10.9933 17.8917 11.795 17.09C12.1433 16.7417 12.3175 16.5683 12.535 16.4683C12.565 16.4544 12.5956 16.4417 12.6267 16.43C12.8517 16.3467 13.0975 16.3467 13.59 16.3467H13.6817C14.9375 16.3467 15.5658 16.3467 15.9567 15.9567C16.3475 15.5667 16.3467 14.9375 16.3467 13.6817V13.59C16.3467 13.0983 16.3467 12.8517 16.43 12.6275C16.4417 12.5958 16.4544 12.565 16.4683 12.535C16.5683 12.3175 16.7417 12.1433 17.09 11.795C17.8917 10.9933 18.2925 10.5925 18.33 10.1C18.335 10.0333 18.335 9.96667 18.33 9.9C18.2925 9.4075 17.8917 9.00666 17.09 8.205C16.7417 7.85667 16.5683 7.6825 16.4683 7.465L16.43 7.37333C16.3467 7.14833 16.3467 6.9025 16.3467 6.41V6.31833C16.3467 5.0625 16.3467 4.43417 15.9567 4.04333C15.5667 3.6525 14.9375 3.65333 13.6817 3.65333H13.59Z" stroke="#712FFF" stroke-width="1.5" stroke-linecap="round" stroke-linejoin="round"/>
    <path d="M12.9168 10C12.9168 10.383 12.8414 10.7623 12.6948 11.1162C12.5482 11.47 12.3334 11.7916 12.0626 12.0624C11.7917 12.3332 11.4702 12.5481 11.1163 12.6946C10.7625 12.8412 10.3832 12.9167 10.0002 12.9167C9.61714 12.9167 9.23787 12.8412 8.884 12.6946C8.53014 12.5481 8.20861 12.3332 7.93777 12.0624C7.66693 11.7916 7.45209 11.47 7.30551 11.1162C7.15894 10.7623 7.0835 10.383 7.0835 10C7.0835 9.22645 7.39079 8.48459 7.93777 7.9376C8.48475 7.39062 9.22661 7.08333 10.0002 7.08333C10.7737 7.08333 11.5156 7.39062 12.0626 7.9376C12.6095 8.48459 12.9168 9.22645 12.9168 10Z" stroke="#712FFF" stroke-width="1.5" stroke-linecap="round" stroke-linejoin="round"/>
  </g>
  <defs>
    <clipPath id="clip0_79_598">
      <rect width="20" height="20" fill="white"/>
    </clipPath>
  </defs>
</svg>