<svg width="24" height="24" viewBox="0 0 24 24" fill="none" xmlns="http://www.w3.org/2000/svg">
<g id="fi_8407947">
<path id="video" d="M21.9 6.20801C21.6457 6.08419 21.3613 6.03546 21.0802 6.06752C20.7991 6.09957 20.533 6.21109 20.313 6.38901L17.75 8.43901V8.00001C17.8088 7.49335 17.7522 6.97997 17.5845 6.49827C17.4168 6.01657 17.1423 5.57903 16.7817 5.21837C16.421 4.85771 15.9835 4.58327 15.5018 4.41557C15.0201 4.24788 14.5067 4.19128 14 4.25001H5.00004C4.49338 4.19128 3.98 4.24788 3.4983 4.41557C3.0166 4.58327 2.57906 4.85771 2.2184 5.21837C1.85774 5.57903 1.5833 6.01657 1.4156 6.49827C1.24791 6.97997 1.19131 7.49335 1.25004 8.00001V16C1.19131 16.5067 1.24791 17.02 1.4156 17.5017C1.5833 17.9834 1.85774 18.421 2.2184 18.7816C2.57906 19.1423 3.0166 19.4167 3.4983 19.5844C3.98 19.7521 4.49338 19.8087 5.00004 19.75H14C14.5067 19.8087 15.0201 19.7521 15.5018 19.5844C15.9835 19.4167 16.421 19.1423 16.7817 18.7816C17.1423 18.421 17.4168 17.9834 17.5845 17.5017C17.7522 17.02 17.8088 16.5067 17.75 16V15.561L20.313 17.611C20.5775 17.8246 20.9071 17.9411 21.247 17.941C21.4731 17.9407 21.6962 17.8898 21.9 17.792C22.1555 17.6704 22.3711 17.4786 22.5216 17.239C22.6721 16.9994 22.7513 16.7219 22.75 16.439V7.56101C22.7513 7.27807 22.6721 7.00061 22.5216 6.76103C22.3711 6.52145 22.1555 6.32964 21.9 6.20801ZM16.25 16C16.25 17.577 15.577 18.25 14 18.25H5.00004C3.42304 18.25 2.75004 17.577 2.75004 16V8.00001C2.75004 6.42301 3.42304 5.75001 5.00004 5.75001H14C15.577 5.75001 16.25 6.42301 16.25 8.00001V16ZM21.25 16.44L17.75 13.64V10.36L21.25 7.56001V16.44Z" fill="white"/>
</g>
</svg>
